<?xml version="1.0" ?><svg viewBox="0 0 64 64" xmlns="http://www.w3.org/2000/svg"><title/><g data-name="07. Warehouse" id="_07._Warehouse"><rect fill="#f04a1c" height="8" width="8" x="17" y="48"/><rect fill="#fbae04" height="8" width="8" x="28" y="48"/><rect fill="#f04a1c" height="8" width="8" x="39" y="48"/><rect fill="#fbae04" height="8" width="8" x="17" y="37"/><rect fill="#f04a1c" height="8" width="8" x="28" y="37"/><rect fill="#fbae04" height="8" width="8" x="39" y="37"/><polygon fill="#f04a1c" points="56 19 32 8 8 19 10 22 32 12 54 22 56 19"/><polygon fill="#b1b9c1" points="10 22 10 56 14 56 14 32 50 32 50 56 54 56 54 22 32 12 10 22"/><rect fill="#4f8aca" height="3" width="8" x="20" y="20"/><rect fill="#4f8aca" height="3" width="8" x="36" y="20"/><rect fill="#4f8aca" height="6" width="36" x="14" y="26"/><path d="M25,47H17a1,1,0,0,0-1,1v8a1,1,0,0,0,1,1h8a1,1,0,0,0,1-1V48A1,1,0,0,0,25,47Zm-1,8H18V49h6Z" fill="#0b1a22"/><path d="M36,47H28a1,1,0,0,0-1,1v8a1,1,0,0,0,1,1h8a1,1,0,0,0,1-1V48A1,1,0,0,0,36,47Zm-1,8H29V49h6Z" fill="#0b1a22"/><path d="M47,47H39a1,1,0,0,0-1,1v8a1,1,0,0,0,1,1h8a1,1,0,0,0,1-1V48A1,1,0,0,0,47,47Zm-1,8H40V49h6Z" fill="#0b1a22"/><path d="M25,36H17a1,1,0,0,0-1,1v8a1,1,0,0,0,1,1h8a1,1,0,0,0,1-1V37A1,1,0,0,0,25,36Zm-1,8H18V38h6Z" fill="#0b1a22"/><path d="M36,36H28a1,1,0,0,0-1,1v8a1,1,0,0,0,1,1h8a1,1,0,0,0,1-1V37A1,1,0,0,0,36,36Zm-1,8H29V38h6Z" fill="#0b1a22"/><path d="M47,36H39a1,1,0,0,0-1,1v8a1,1,0,0,0,1,1h8a1,1,0,0,0,1-1V37A1,1,0,0,0,47,36Zm-1,8H40V38h6Z" fill="#0b1a22"/><path d="M56.96191,18.727a.99941.99941,0,0,0-.54541-.63623l-24-11a1.00047,1.00047,0,0,0-.833,0l-24,11A1.00024,1.00024,0,0,0,7.168,19.55469L9,22.30273V56a1,1,0,0,0,1,1h4a1,1,0,0,0,1-1V33H49V56a1,1,0,0,0,1,1h4a1,1,0,0,0,1-1V22.30273l1.832-2.748A.99844.99844,0,0,0,56.96191,18.727ZM32,9.1001,54.51758,19.42041l-.87793,1.31738L32.41357,11.08984a.99439.99439,0,0,0-.82714,0l-21.22608,9.648-.87793-1.31738ZM15,31V27H49v4ZM53,55H51V26a1,1,0,0,0-1-1H14a1,1,0,0,0-1,1V55H11V22.644l21-9.54541L53,22.644Z" fill="#0b1a22"/><path d="M28,19H20a1,1,0,0,0-1,1v3a1,1,0,0,0,1,1h8a1,1,0,0,0,1-1V20A1,1,0,0,0,28,19Zm-1,3H21V21h6Z" fill="#0b1a22"/><path d="M36,24h8a1,1,0,0,0,1-1V20a1,1,0,0,0-1-1H36a1,1,0,0,0-1,1v3A1,1,0,0,0,36,24Zm1-3h6v1H37Z" fill="#0b1a22"/><path d="M43,28H21a1,1,0,0,0,0,2H43a1,1,0,0,0,0-2Z" fill="#0b1a22"/></g></svg>