<?xml version="1.0" ?><svg viewBox="0 0 64 64" xmlns="http://www.w3.org/2000/svg"><title/><g data-name="08. Truck" id="_08._Truck"><path d="M14,8H50a1,1,0,0,1,1,1V44a0,0,0,0,1,0,0H13a0,0,0,0,1,0,0V9A1,1,0,0,1,14,8Z" fill="#b1b9c1"/><path d="M16,44V20a4,4,0,0,1,4-4H44a4,4,0,0,1,4,4V44Z" fill="#fbae04"/><path d="M16,50h8a0,0,0,0,1,0,0v4a2,2,0,0,1-2,2H18a2,2,0,0,1-2-2V50A0,0,0,0,1,16,50Z" fill="#374d5d"/><path d="M40,50h8a0,0,0,0,1,0,0v4a2,2,0,0,1-2,2H42a2,2,0,0,1-2-2V50A0,0,0,0,1,40,50Z" fill="#374d5d"/><rect fill="#b1b9c1" height="8" width="5" x="8" y="26"/><rect fill="#b1b9c1" height="8" width="5" x="51" y="26"/><rect fill="#586571" height="6" rx="2" ry="2" width="38" x="13" y="44"/><path d="M45,32l-4.64286,2H23.64286L19,32V21a.96628.96628,0,0,1,.92857-1H44.07143A.96628.96628,0,0,1,45,21Z" fill="#4f8aca"/><polygon fill="#f04a1c" points="20 44 16 44 16 38 18 38 20 40 20 44"/><polygon fill="#f04a1c" points="44 44 48 44 48 38 46 38 44 40 44 44"/><path d="M56,25H52V9a2.002,2.002,0,0,0-2-2H14a2.002,2.002,0,0,0-2,2V25H8a1,1,0,0,0-1,1v8a1,1,0,0,0,1,1h4v9a.99444.99444,0,0,0,.30157.71295A2.96587,2.96587,0,0,0,12,46v2a3.00328,3.00328,0,0,0,3,3v3a3.00328,3.00328,0,0,0,3,3h4a3.00328,3.00328,0,0,0,3-3V51H39v3a3.00328,3.00328,0,0,0,3,3h4a3.00328,3.00328,0,0,0,3-3V51a3.00328,3.00328,0,0,0,3-3V46a2.96524,2.96524,0,0,0-.30151-1.28711A.99459.99459,0,0,0,52,44V35h4a1,1,0,0,0,1-1V26A1,1,0,0,0,56,25ZM49,43V36.53516l1-.66669V43ZM21,43V40a1.00012,1.00012,0,0,0-.293-.707l-2-2A1.00012,1.00012,0,0,0,18,37H17V20a3.00328,3.00328,0,0,1,3-3H44a3.00328,3.00328,0,0,1,3,3V37H46a1.00012,1.00012,0,0,0-.707.293l-2,2A1.00012,1.00012,0,0,0,43,40v3Zm-7,0V35.86847l1,.66669V43Zm3-4h.58594L19,40.41406V43H17Zm28,1.41406L46.41406,39H47v4H45ZM14,9H50V33.46484l-1,.66669V20a5.00588,5.00588,0,0,0-5-5H20a5.00588,5.00588,0,0,0-5,5V34.13153l-1-.66669ZM9,33V27h3v6ZM23,54a1.0013,1.0013,0,0,1-1,1H18a1.0013,1.0013,0,0,1-1-1V51h6Zm24,0a1.0013,1.0013,0,0,1-1,1H42a1.0013,1.0013,0,0,1-1-1V51h6Zm3-6a1.0013,1.0013,0,0,1-1,1H15a1.0013,1.0013,0,0,1-1-1V46a1.0013,1.0013,0,0,1,1-1H49a1.0013,1.0013,0,0,1,1,1Zm5-15H52V27h3Z" fill="#0b1a22"/><path d="M23.64307,35H40.35693a1.001,1.001,0,0,0,.39551-.08154l4.64307-2A1.00045,1.00045,0,0,0,46,32V21a1.96742,1.96742,0,0,0-1.92871-2H19.92871A1.96742,1.96742,0,0,0,18,21V32a1.00045,1.00045,0,0,0,.60449.91846l4.64307,2A1.001,1.001,0,0,0,23.64307,35ZM19.92871,21H44V31.3418L40.15088,33H37.08l.57147-1H40.5a1,1,0,0,0,0-2h-6a1,1,0,0,0,0,2h.84821l-.57148,1H27.08l.57147-1H30.5a1,1,0,0,0,0-2h-6a1,1,0,0,0,0,2h.84821l-.57148,1h-.92761l-3.85351-1.66016Z" fill="#0b1a22"/><path d="M29,46H25a1,1,0,0,0,0,2h4a1,1,0,0,0,0-2Z" fill="#0b1a22"/><path d="M39,46H35a1,1,0,0,0,0,2h4a1,1,0,0,0,0-2Z" fill="#0b1a22"/><path d="M40,40H24a1,1,0,0,0,0,2H40a1,1,0,0,0,0-2Z" fill="#0b1a22"/><path d="M40,37H24a1,1,0,0,0,0,2H40a1,1,0,0,0,0-2Z" fill="#0b1a22"/></g></svg>