<?xml version="1.0" ?><svg viewBox="0 0 64 64" xmlns="http://www.w3.org/2000/svg"><title/><g data-name="15. Large Box" id="_15._Large_Box"><rect fill="#b1b9c1" height="3" width="48" x="8" y="49"/><rect fill="#fbae04" height="4" width="6" x="13" y="45"/><rect fill="#fbae04" height="4" width="6" x="45" y="45"/><rect fill="#fbae04" height="4" width="6" x="29" y="45"/><rect fill="#fbae04" height="3" width="38" x="13" y="42"/><rect fill="#f04a1c" height="30" width="38" x="13" y="12"/><rect fill="#fbae04" height="4" width="8" x="28" y="12"/><rect fill="#fbae04" height="4" width="8" x="28" y="38"/><path d="M56,48H52V12a1,1,0,0,0-1-1H13a1,1,0,0,0-1,1V48H8a1,1,0,0,0-1,1v3a1,1,0,0,0,1,1H56a1,1,0,0,0,1-1V49A1,1,0,0,0,56,48ZM36,48V46h8v2ZM20,48V46h8v2Zm-6-7V13h.0542c2.587,2.45575,5.25629,4.80737,7.96411,7.11011,2.75073,2.35388,5.56293,4.62994,8.388,6.88958C27.58,29.258,24.76758,31.53394,22.01648,33.88751,19.30811,36.19006,16.63916,38.54254,14.053,41ZM28,17h8a1,1,0,0,0,1-1V13H49.46545c-2.87744,1.88507-5.68029,3.86462-8.44714,5.88983C37.96405,21.111,34.97528,23.4151,32,25.73633c-2.97528-2.32123-5.964-4.62531-9.01831-6.8465C20.21484,16.86462,17.412,14.88507,14.53455,13H27v3A1,1,0,0,0,28,17Zm7,24H29V39h6Zm1-4H28a1,1,0,0,0-1,1v3H14.53632c2.87811-1.88348,5.68109-3.86218,8.44726-5.88751C26.03741,32.89093,29.02606,30.58667,32,28.264c2.97394,2.32269,5.96259,4.62695,9.01648,6.84851,2.76617,2.02533,5.56909,4.004,8.4472,5.88751H37V38A1,1,0,0,0,36,37ZM50,13V41h-.053c-2.58606-2.45746-5.255-4.80994-7.96338-7.11249C39.23242,31.53394,36.42,29.258,33.59369,26.99969c2.82513-2.25964,5.63727-4.5357,8.388-6.88958C44.68958,17.80737,47.35876,15.45575,49.9458,13ZM14,43H50v1H14Zm16,3h4v2H30Zm16,0h4v2H46ZM35,13v2H29V13ZM14,46h4v2H14Zm41,5H9V50H55Z" fill="#0b1a22"/></g></svg>