<?xml version="1.0" ?><svg viewBox="0 0 64 64" xmlns="http://www.w3.org/2000/svg"><title/><g data-name="21. Inbound" id="_21._Inbound"><rect fill="#f04a1c" height="24" width="24" x="20" y="32"/><path d="M32,8a6,6,0,0,0-6,6c0,8,6,14,6,14s6-6,6-14A6,6,0,0,0,32,8Zm0,9a3,3,0,1,1,3-3A3,3,0,0,1,32,17Z" fill="#f04a1c"/><polygon fill="#4f8aca" points="40 26 47 21 47 24 56 24 56 28 47 28 47 31 40 26"/><polygon fill="#4f8aca" points="24 26 17 21 17 24 8 24 8 28 17 28 17 31 24 26"/><polygon fill="#fbae04" points="35 40 32 38 29 40 29 32 35 32 35 40"/><rect fill="#fbae04" height="3" width="3" x="23" y="35"/><rect fill="#fbae04" height="3" width="4" x="37" y="50"/><path d="M44,31H20a1,1,0,0,0-1,1V56a1,1,0,0,0,1,1H44a1,1,0,0,0,1-1V32A1,1,0,0,0,44,31ZM34,33v5.13135L32.55469,37.168a.99987.99987,0,0,0-1.10938,0L30,38.13135V33Zm9,22H21V33h7v7a.99992.99992,0,0,0,1.55469.832L32,39.20166,34.44531,40.832A.99992.99992,0,0,0,36,40V33h7Z" fill="#0b1a22"/><path d="M32,29a.99676.99676,0,0,0,.707-.293C32.96387,28.4502,39,22.31836,39,14a7,7,0,0,0-14,0c0,8.31836,6.03613,14.4502,6.293,14.707A.99676.99676,0,0,0,32,29ZM32,9a5.00588,5.00588,0,0,1,5,5c0,5.85938-3.47314,10.667-5.00146,12.498C30.47021,24.67139,27,19.877,27,14A5.00588,5.00588,0,0,1,32,9Z" fill="#0b1a22"/><path d="M36,14a4,4,0,1,0-4,4A4.00458,4.00458,0,0,0,36,14Zm-6,0a2,2,0,1,1,2,2A2.002,2.002,0,0,1,30,14Z" fill="#0b1a22"/><path d="M56,23H48V21a1.0001,1.0001,0,0,0-1.581-.814l-7,5a1.00018,1.00018,0,0,0,0,1.62792l7,5A1.0001,1.0001,0,0,0,48,31V29h8a1,1,0,0,0,1-1V24A1,1,0,0,0,56,23Zm-1,4H47a1,1,0,0,0-1,1v1.05664L41.7207,26,46,22.94336V24a1,1,0,0,0,1,1h8Z" fill="#0b1a22"/><path d="M25,26a1.00019,1.00019,0,0,0-.41895-.814l-7-5A1.0001,1.0001,0,0,0,16,21v2H8a1,1,0,0,0-1,1v4a1,1,0,0,0,1,1h8v2a1.0001,1.0001,0,0,0,1.58105.814l7-5A1.00019,1.00019,0,0,0,25,26Zm-7,3.05664V28a1,1,0,0,0-1-1H9V25h8a1,1,0,0,0,1-1V22.94336L22.2793,26Z" fill="#0b1a22"/><path d="M26,34H23a1,1,0,0,0-1,1v3a1,1,0,0,0,1,1h3a1,1,0,0,0,1-1V35A1,1,0,0,0,26,34Zm-1,3H24V36h1Z" fill="#0b1a22"/><path d="M36,50v3a1,1,0,0,0,1,1h4a1,1,0,0,0,1-1V50a1,1,0,0,0-1-1H37A1,1,0,0,0,36,50Zm2,1h2v1H38Z" fill="#0b1a22"/><path d="M26,40H23a1,1,0,0,0,0,2h3a1,1,0,0,0,0-2Z" fill="#0b1a22"/><path d="M41,40a1,1,0,0,0,1-1V35a1,1,0,0,0-2,0v4A1,1,0,0,0,41,40Z" fill="#0b1a22"/><path d="M41,45a1,1,0,0,0,1-1V42a1,1,0,0,0-2,0v2A1,1,0,0,0,41,45Z" fill="#0b1a22"/><path d="M23,50a1,1,0,0,0-1,1v2a1,1,0,0,0,2,0V51A1,1,0,0,0,23,50Z" fill="#0b1a22"/><path d="M26,50a1,1,0,0,0-1,1v2a1,1,0,0,0,2,0V51A1,1,0,0,0,26,50Z" fill="#0b1a22"/></g></svg>