<svg xmlns="http://www.w3.org/2000/svg" width="100" height="100" viewBox="0 0 100 100">
  <g id="about_icon1" transform="translate(-563 -2067)">
    <g id="Ellipse_17" data-name="Ellipse 17" transform="translate(563 2067)" fill="rgba(255,255,255,0.3)" stroke="#fff" stroke-width="1">
      <circle cx="50" cy="50" r="50" stroke="none"/>
      <circle cx="50" cy="50" r="49.5" fill="none"/>
    </g>
    <g id="architect拷貝" transform="translate(586.047 2092.256)">
      <path id="Path_735" data-name="Path 735" d="M46.689,29.755c0-1.43-1.514-2.523-3.364-2.523s-3.364,1.093-3.364,2.523v2.523l-4.121-1.766a7.87,7.87,0,0,0,2.1-3.364l2.271-1.177a2.533,2.533,0,0,0,1.43-2.271V22.186a2.478,2.478,0,0,0-2.523-2.523h-.336l-.5.5V17.98H39.96V15.457A11.733,11.733,0,0,0,31.55,4.187,2.539,2.539,0,0,0,29.027,2H27.344a2.539,2.539,0,0,0-2.523,2.187,11.733,11.733,0,0,0-8.411,11.27V17.98h1.682v2.187l-.5-.5h-.336a2.478,2.478,0,0,0-2.523,2.523V23.7a2.479,2.479,0,0,0,1.43,2.271l2.271,1.177a7.87,7.87,0,0,0,2.1,3.364L13.551,33.54A9.307,9.307,0,0,0,8,42.035V52.464H50.053V27.989L46.689,32.7ZM41.643,39.68V31.942a4.643,4.643,0,0,0,3.364,0V34.97Zm1.682-10.766c1.009,0,1.682.5,1.682.841s-.673.841-1.682.841-1.682-.5-1.682-.841S42.315,28.914,43.325,28.914ZM39.96,36.231l-5.467,4.037a3.148,3.148,0,0,1-1.514.421H30.12l.252-1.009a.906.906,0,0,1,.841-.673h1.177a4.384,4.384,0,0,0,3.448-1.766l2.691-3.785,1.514.673v2.1ZM28.774,39.259l-.589,2.187L27.6,39.259a2.438,2.438,0,0,0-2.439-1.934H23.98a2.366,2.366,0,0,1-2.019-1.093L19.438,32.7l2.607-1.177,2.439,1.346a7.385,7.385,0,0,0,7.233,0l2.439-1.346L36.764,32.7l-2.523,3.532a2.6,2.6,0,0,1-2.019,1.093H31.045a2.4,2.4,0,0,0-2.271,1.934Zm-2.523,1.43h-2.86a2.52,2.52,0,0,1-1.514-.5l-7.317-5.3,3.28-1.43,2.691,3.785a4.263,4.263,0,0,0,3.448,1.766h1.177A.819.819,0,0,1,26,39.68Zm13.2-19.26a.736.736,0,0,1,.5.757V23.7a.808.808,0,0,1-.5.757l-1.177.589V22.606ZM18.261,16.3a2.45,2.45,0,0,1,2.355-1.682H35.755A2.45,2.45,0,0,1,38.11,16.3Zm6.56-10.345v5.3H26.5V4.523a.8.8,0,0,1,.841-.841h1.682a.8.8,0,0,1,.841.841v6.729H31.55v-5.3a9.832,9.832,0,0,1,6.56,7.738,3.934,3.934,0,0,0-2.355-.757H20.616a3.934,3.934,0,0,0-2.355.757A9.832,9.832,0,0,1,24.821,5.953Zm-7.906,18.5a.967.967,0,0,1-.5-.757V22.186a.852.852,0,0,1,.5-.757l1.177,1.177v2.439Zm2.86.5V17.98H36.6v6.981a5.807,5.807,0,0,1-3.028,5.13l-2.523,1.346a6.067,6.067,0,0,1-5.635,0l-2.523-1.346a5.82,5.82,0,0,1-3.112-5.13ZM9.682,41.951a7.618,7.618,0,0,1,3.28-6.224l7.99,5.8a4.49,4.49,0,0,0,2.439.841h3.953v8.411H24.821V44.053H18.766l-.673-2.691-1.682.336L17,44.053H15.57v6.729H9.682Zm13.457,3.785v1.682H17.252V45.735ZM17.252,49.1h5.887v1.682H17.252Zm11.775,1.682V42.371H32.98a3.592,3.592,0,0,0,2.439-.841l4.542-3.28v3.7l-6.308,8.831ZM48.371,33.2V50.782H35.755L46.689,35.643v-.084Z" transform="translate(-2.073 -2.488)" fill="#fff" stroke="#fff" stroke-width="0.7"/>
      <path id="Path_736" data-name="Path 736" d="M51.847,54.783V44.7L45.1,54.783Zm-1.516-1.516h-2.35l2.35-3.563Z" transform="translate(-8.973 -10.327)" fill="#fff"/>
    </g>
  </g>
</svg>
