<svg xmlns="http://www.w3.org/2000/svg" width="100" height="100" viewBox="0 0 100 100">
  <g id="about_icon2" transform="translate(-743 -2067)">
    <g id="Ellipse_20" data-name="Ellipse 20" transform="translate(743 2067)" fill="rgba(255,255,255,0.3)" stroke="#fff" stroke-width="1">
      <circle cx="50" cy="50" r="50" stroke="none"/>
      <circle cx="50" cy="50" r="49.5" fill="none"/>
    </g>
    <g id="pencil" transform="translate(772.332 2096.33)">
      <path id="Path_734" data-name="Path 734" d="M32.859,24.383a8.467,8.467,0,0,0-2.024.245l-3.959-3.959L40.982,6.564a1.211,1.211,0,0,0,0-1.713l-4.5-4.5a1.211,1.211,0,0,0-1.713,0L20.668,14.461,16.709,10.5A8.477,8.477,0,0,0,5.5.541a1.211,1.211,0,0,0-.43,1.99L7.508,4.968l-.338,2.2-2.2.338L2.529,5.072a1.211,1.211,0,0,0-1.99.43A8.478,8.478,0,0,0,10.5,16.711l3.958,3.958L3.838,31.291a1.212,1.212,0,0,0-.254.372L.1,39.642A1.211,1.211,0,0,0,1.7,41.237l7.98-3.484a1.21,1.21,0,0,0,.372-.254L20.668,26.878l3.959,3.959A8.477,8.477,0,0,0,35.836,40.8a1.211,1.211,0,0,0,.43-1.99l-2.437-2.437.338-2.2,2.2-.338,2.437,2.437a1.211,1.211,0,0,0,1.99-.43,8.477,8.477,0,0,0-7.937-11.454Zm2.77-21.458,2.783,2.783L35.843,8.277,33.06,5.494ZM31.347,7.207,34.131,9.99l-8.967,8.967-2.783-2.783ZM2.422,8.479c0-.03,0-.059,0-.089L3.687,9.655A1.211,1.211,0,0,0,4.727,10l3.689-.565A1.211,1.211,0,0,0,9.429,8.417l.565-3.688a1.211,1.211,0,0,0-.341-1.04L8.389,2.424h.088A6.055,6.055,0,1,1,2.422,8.479ZM5.094,34.259l1.984,1.984L3.556,37.782Zm4.1.671L6.407,32.147l9.765-9.765,2.783,2.783ZM12.914,15.7A8.544,8.544,0,0,0,15.7,12.916L28.422,25.64a8.543,8.543,0,0,0-2.783,2.783Zm26,17.25-1.265-1.265a1.211,1.211,0,0,0-1.04-.341l-3.689.565a1.211,1.211,0,0,0-1.014,1.014l-.565,3.688a1.211,1.211,0,0,0,.341,1.04l1.265,1.265h-.088a6.055,6.055,0,1,1,6.055-6.055C38.914,32.89,38.914,32.92,38.914,32.949Z" transform="translate(0)" fill="#fff"/>
    </g>
  </g>
</svg>
