<svg xmlns="http://www.w3.org/2000/svg" width="100" height="100" viewBox="0 0 100 100">
  <g id="about_icon3" transform="translate(-1090 -2067)">
    <g id="Ellipse_19" data-name="Ellipse 19" transform="translate(1090 2067)" fill="rgba(255,255,255,0.3)" stroke="#fff" stroke-width="1">
      <circle cx="50" cy="50" r="50" stroke="none"/>
      <circle cx="50" cy="50" r="49.5" fill="none"/>
    </g>
    <g id="hand-shake" transform="translate(1112.791 2007.991)">
      <g id="Group_173" data-name="Group 173" transform="translate(7.934 98.411)">
        <g id="Group_172" data-name="Group 172" transform="translate(0 0)">
          <path id="Path_726" data-name="Path 726" d="M109.677,139.571c-1.068-2.227-4.889-5.317-8.58-8.3-2.059-1.664-4-3.238-5.245-4.478a1.133,1.133,0,0,0-1.186-.265c-.764.277-1.236.49-1.608.655a3.749,3.749,0,0,1-1.521.417,1.133,1.133,0,0,0-.83.5c-1.6,2.4-3.263,2.193-4.372,1.821-.354-.118-.417-.27-.451-.415-.238-1,.957-3.313,2.506-4.861,3.685-3.687,5.585-4.61,9.6-2.816,4.553,2.036,9.115,3.63,9.161,3.646a1.134,1.134,0,1,0,.746-2.143c-.045-.016-4.517-1.578-8.979-3.576-5.2-2.324-8.052-.794-12.126,3.283-1.551,1.551-3.657,4.689-3.113,6.991a2.8,2.8,0,0,0,1.948,2.043,5.674,5.674,0,0,0,6.66-2.281,5.724,5.724,0,0,0,1.7-.54c.213-.1.463-.206.794-.34,1.3,1.218,3.047,2.635,4.891,4.124,3.333,2.7,7.113,5.753,7.963,7.521a1.328,1.328,0,0,1-.338,1.7,1.249,1.249,0,0,1-1.4.274,1.133,1.133,0,0,0-1.771,1.054,1.37,1.37,0,0,1-.868,1.277,1.74,1.74,0,0,1-1.766.041,1.133,1.133,0,0,0-1.9.723,2.154,2.154,0,0,1-1.338,1.737,1.2,1.2,0,0,1-1.3-.2,1.147,1.147,0,0,0-1.036-.263,1.132,1.132,0,0,0-.8.714c-.043.113-.141.385-1.2.385a6.529,6.529,0,0,1-2.778-.95c-.8-.524-5.787-4.247-10.1-7.857-.605-.51-1.653-1.6-2.578-2.569-.821-.857-1.571-1.635-1.957-1.961a1.134,1.134,0,1,0-1.465,1.732c.351.3,1.032,1.016,1.782,1.8,1.011,1.057,2.057,2.15,2.76,2.739,4.222,3.535,9.3,7.351,10.308,8.015a8.7,8.7,0,0,0,4.025,1.32,3.9,3.9,0,0,0,2.574-.757,3.529,3.529,0,0,0,2.578-.027,4.466,4.466,0,0,0,2.36-2.179,4.384,4.384,0,0,0,2.846-.41,3.847,3.847,0,0,0,1.893-1.977,3.708,3.708,0,0,0,2.6-.932A3.6,3.6,0,0,0,109.677,139.571Z" transform="translate(-74.642 -118.658)" fill="#fff"/>
        </g>
      </g>
      <g id="Group_175" data-name="Group 175" transform="translate(11.337 100.538)">
        <g id="Group_174" data-name="Group 174" transform="translate(0 0)">
          <path id="Path_727" data-name="Path 727" d="M118,138.663H107.8a1.134,1.134,0,0,0,0,2.268H118a1.134,1.134,0,1,0,0-2.268Z" transform="translate(-106.666 -138.663)" fill="#fff"/>
        </g>
      </g>
      <g id="Group_177" data-name="Group 177" transform="translate(40.901 116.408)">
        <g id="Group_176" data-name="Group 176" transform="translate(0 0)">
          <path id="Path_728" data-name="Path 728" d="M390.2,288.48a1.131,1.131,0,0,0-1.574-.308l-3.315,2.227a1.134,1.134,0,0,0,1.265,1.882l3.315-2.227A1.135,1.135,0,0,0,390.2,288.48Z" transform="translate(-384.811 -287.977)" fill="#fff"/>
        </g>
      </g>
      <g id="Group_179" data-name="Group 179" transform="translate(30.613 115.275)">
        <g id="Group_178" data-name="Group 178" transform="translate(0 0)">
          <path id="Path_729" data-name="Path 729" d="M296.655,284.364c-.812-.639-4.442-4.356-6.687-6.7a1.134,1.134,0,0,0-1.637,1.569c.583.608,5.723,5.966,6.918,6.909a1.129,1.129,0,0,0,.7.243,1.146,1.146,0,0,0,.893-.433A1.133,1.133,0,0,0,296.655,284.364Z" transform="translate(-288.016 -277.317)" fill="#fff"/>
        </g>
      </g>
      <g id="Group_181" data-name="Group 181" transform="translate(27.21 118.678)">
        <g id="Group_180" data-name="Group 180" transform="translate(0 0)">
          <path id="Path_730" data-name="Path 730" d="M263.517,315.254c-1.358-1.086-4.771-4.712-5.542-5.551a1.135,1.135,0,0,0-1.671,1.535c.041.043,4.113,4.44,5.8,5.787a1.134,1.134,0,0,0,1.417-1.771Z" transform="translate(-256.005 -309.337)" fill="#fff"/>
        </g>
      </g>
      <g id="Group_183" data-name="Group 183" transform="translate(22.676 120.943)">
        <g id="Group_182" data-name="Group 182" transform="translate(0 0)">
          <path id="Path_731" data-name="Path 731" d="M220.877,336.58c-1.617-1.363-4.925-4.884-5.571-5.576a1.134,1.134,0,0,0-1.658,1.549c.93,1,4.1,4.351,5.766,5.762a1.134,1.134,0,0,0,1.463-1.735Z" transform="translate(-213.343 -330.644)" fill="#fff"/>
        </g>
      </g>
      <g id="Group_185" data-name="Group 185" transform="translate(0 96.003)">
        <g id="Group_184" data-name="Group 184" transform="translate(0 0)">
          <path id="Path_732" data-name="Path 732" d="M13.251,98.581C11.308,96.74,3.537,96.143,1.2,96.005A1.133,1.133,0,0,0,0,97.136v20.407a1.134,1.134,0,0,0,1.134,1.134h6.8a1.133,1.133,0,0,0,1.077-.782c.165-.508,4.072-12.5,4.587-18.394A1.128,1.128,0,0,0,13.251,98.581ZM7.109,116.41H2.267V98.352c3.644.288,7.576.914,9,1.608C10.671,104.925,7.952,113.748,7.109,116.41Z" transform="translate(0 -96.003)" fill="#fff"/>
        </g>
      </g>
      <g id="Group_187" data-name="Group 187" transform="translate(38.587 98.27)">
        <g id="Group_186" data-name="Group 186" transform="translate(0 0)">
          <path id="Path_733" data-name="Path 733" d="M377.744,117.33c-8.9,0-13.841,2.279-14.047,2.374a1.128,1.128,0,0,0-.605.705,1.143,1.143,0,0,0,.125.921c1.4,2.256,5.789,14.786,6.632,17.843a1.134,1.134,0,0,0,1.093.832h6.8a1.134,1.134,0,0,0,1.134-1.134V118.464A1.133,1.133,0,0,0,377.744,117.33Zm-1.134,20.407H371.79c-1.075-3.5-4.249-12.63-6.02-16.4a36.927,36.927,0,0,1,10.841-1.723Z" transform="translate(-363.046 -117.33)" fill="#fff"/>
        </g>
      </g>
    </g>
  </g>
</svg>
