<svg xmlns="http://www.w3.org/2000/svg" width="100" height="100" viewBox="0 0 100 100">
  <g id="about_icon4" transform="translate(-910 -2067)">
    <g id="Ellipse_18" data-name="Ellipse 18" transform="translate(910 2067)" fill="rgba(255,255,255,0.3)" stroke="#fff" stroke-width="1">
      <circle cx="50" cy="50" r="50" stroke="none"/>
      <circle cx="50" cy="50" r="49.5" fill="none"/>
    </g>
    <g id="derrick" transform="translate(848.129 2093.043)">
      <path id="Path_725" data-name="Path 725" d="M126.749,37.4a1.4,1.4,0,0,0-.122-.537c-.144-.32.5.432-11.008-12a5.943,5.943,0,0,0,.435-8.749,5.854,5.854,0,0,0-2.779-1.615v-4.1h2.34a1.4,1.4,0,0,0,1.4-1.266l.749-7.58A1.4,1.4,0,0,0,116.364,0H107.38a1.4,1.4,0,0,0-1.4,1.542l.749,7.58a1.4,1.4,0,0,0,1.4,1.266h2.34v5.334a1.4,1.4,0,0,0,1.4,1.4,3.178,3.178,0,0,1,3.088,3.182,3.089,3.089,0,0,1-5.661,1.709,1.4,1.4,0,1,0-2.337,1.556,5.915,5.915,0,0,0,1.16,1.285c-11.469,12.392-10.8,11.652-10.908,11.82a1.4,1.4,0,0,0-.2.506c-.034.188-.023-.554-.023,9.326a1.4,1.4,0,0,0,1.4,1.4h26.951a1.4,1.4,0,0,0,1.4-1.4C126.751,36.468,126.752,37.5,126.749,37.4ZM108.929,2.807h5.885l-.471,4.773H109.4ZM112.949,26.1l9.187,9.926H101.608l9.186-9.925a5.873,5.873,0,0,0,2.155,0Zm11,19H99.8v-6.27h24.144Z" fill="#fff"/>
    </g>
  </g>
</svg>
