<svg xmlns="http://www.w3.org/2000/svg" xmlns:xlink="http://www.w3.org/1999/xlink" width="24" height="24" viewBox="0 0 24 24">
  <defs>
    <clipPath id="clip-path">
      <rect id="Rectangle_41" data-name="Rectangle 41" width="24" height="24" transform="translate(1130 897)" fill="#161616"/>
    </clipPath>
  </defs>
  <g id="fax" transform="translate(-1130 -897)" clip-path="url(#clip-path)">
    <g id="fax-2" data-name="fax" transform="translate(1134.03 901.03)">
      <g id="Group_27" data-name="Group 27" transform="translate(0 2.87)">
        <g id="Group_26" data-name="Group 26">
          <path id="Path_83" data-name="Path 83" d="M1.4,92A1.4,1.4,0,0,0,0,93.4v9.357a1.4,1.4,0,0,0,1.4,1.4h.468V92Z" transform="translate(0 -92)" fill="#161616"/>
        </g>
      </g>
      <g id="Group_29" data-name="Group 29" transform="translate(6.612)">
        <g id="Group_28" data-name="Group 28">
          <path id="Path_84" data-name="Path 84" d="M219.018,0h-6.55A.463.463,0,0,0,212,.468V1.934h7.486V.468A.463.463,0,0,0,219.018,0Z" transform="translate(-212)" fill="#161616"/>
        </g>
      </g>
      <g id="Group_31" data-name="Group 31" transform="translate(8.537 6.547)">
        <g id="Group_30" data-name="Group 30" transform="translate(0 0)">
          <rect id="Rectangle_38" data-name="Rectangle 38" width="5.314" fill="#161616"/>
        </g>
      </g>
      <g id="Group_33" data-name="Group 33" transform="translate(6.612 2.87)">
        <g id="Group_32" data-name="Group 32">
          <path id="Path_85" data-name="Path 85" d="M219.954,92H212v12.164h7.954a1.4,1.4,0,0,0,1.4-1.4V93.4A1.4,1.4,0,0,0,219.954,92Zm-5.614,10.293H213.4a.468.468,0,0,1,0-.936h.936A.468.468,0,0,1,214.339,102.293Zm0-1.871H213.4a.468.468,0,0,1,0-.936h.936A.468.468,0,0,1,214.339,100.421Zm0-1.871H213.4a.468.468,0,0,1,0-.936h.936A.468.468,0,0,1,214.339,98.55Zm2.807,3.743h-.936a.468.468,0,0,1,0-.936h.936A.468.468,0,0,1,217.146,102.293Zm0-1.871h-.936a.468.468,0,0,1,0-.936h.936A.468.468,0,0,1,217.146,100.421Zm0-1.871h-.936a.468.468,0,0,1,0-.936h.936A.468.468,0,0,1,217.146,98.55Zm2.807,3.743h-.936a.468.468,0,0,1,0-.936h.936A.468.468,0,0,1,219.954,102.293Zm0-1.871h-.936a.468.468,0,0,1,0-.936h.936A.468.468,0,0,1,219.954,100.421Zm0-1.871h-.936a.468.468,0,0,1,0-.936h.936A.468.468,0,0,1,219.954,98.55Zm.468-2.339a.468.468,0,0,1-.468.468H213.4a.468.468,0,0,1-.468-.468V94.339a.468.468,0,0,1,.468-.468h6.55a.468.468,0,0,1,.468.468Z" transform="translate(-212 -92)" fill="#161616"/>
        </g>
      </g>
      <g id="Group_35" data-name="Group 35" transform="translate(2.807 1.934)">
        <g id="Group_34" data-name="Group 34">
          <path id="Path_86" data-name="Path 86" d="M91.934,62h-1a.936.936,0,0,0-.936.936V75.1a.936.936,0,0,0,.936.936h1a.936.936,0,0,0,.936-.936V62.936A.936.936,0,0,0,91.934,62Z" transform="translate(-90 -62)" fill="#161616"/>
        </g>
      </g>
    </g>
  </g>
</svg>
