<?xml version="1.0" encoding="utf-8"?>
<!-- Generator: Adobe Illustrator 24.0.1, SVG Export Plug-In . SVG Version: 6.00 Build 0)  -->
<svg version="1.1" xmlns="http://www.w3.org/2000/svg" xmlns:xlink="http://www.w3.org/1999/xlink" x="0px" y="0px"
	 viewBox="0 0 430 110" style="enable-background:new 0 0 430 110;" xml:space="preserve">
<style type="text/css">
	.st0{display:none;}
	.st1{display:inline;}
	.st2{fill:#FFFFFF;}
	.st3{fill:url(#SVGID_5_);stroke:#000000;stroke-width:0.1417;stroke-linecap:round;stroke-linejoin:round;}
	.st4{fill:url(#SVGID_6_);stroke:#000000;stroke-width:0.1417;stroke-linecap:round;stroke-linejoin:round;}
	.st5{fill:url(#SVGID_7_);stroke:#000000;stroke-width:0.1417;stroke-linecap:round;stroke-linejoin:round;}
	.st6{fill:url(#SVGID_8_);stroke:#000000;stroke-width:0.1417;stroke-linecap:round;stroke-linejoin:round;}
	.st7{fill:url(#SVGID_9_);stroke:#000000;stroke-width:0.1417;stroke-linecap:round;stroke-linejoin:round;}
	.st8{fill:url(#SVGID_10_);stroke:#000000;stroke-width:0.1417;stroke-linecap:round;stroke-linejoin:round;}
	.st9{fill:url(#SVGID_11_);stroke:#000000;stroke-width:0.1417;stroke-linecap:round;stroke-linejoin:round;}
	.st10{fill:url(#SVGID_12_);stroke:#000000;stroke-width:0.1417;stroke-linecap:round;stroke-linejoin:round;}
	.st11{fill:url(#SVGID_13_);stroke:#000000;stroke-width:0.1417;stroke-linecap:round;stroke-linejoin:round;}
	.st12{fill:url(#SVGID_14_);stroke:#000000;stroke-width:0.1417;stroke-linecap:round;stroke-linejoin:round;}
	.st13{fill:url(#SVGID_15_);stroke:#000000;stroke-width:0.1417;stroke-linecap:round;stroke-linejoin:round;}
	.st14{fill:url(#SVGID_16_);stroke:#000000;stroke-width:0.1417;stroke-linecap:round;stroke-linejoin:round;}
	.st15{fill:url(#SVGID_17_);stroke:#000000;stroke-width:0.1417;stroke-linecap:round;stroke-linejoin:round;}
	.st16{fill:url(#SVGID_18_);stroke:#000000;stroke-width:0.1417;stroke-linecap:round;stroke-linejoin:round;}
	.st17{fill:url(#SVGID_19_);stroke:#000000;stroke-width:0.1417;stroke-linecap:round;stroke-linejoin:round;}
	.st18{fill:url(#SVGID_20_);stroke:#000000;stroke-width:0.1417;stroke-linecap:round;stroke-linejoin:round;}
	.st19{fill:url(#SVGID_21_);stroke:#000000;stroke-width:0.1417;stroke-linecap:round;stroke-linejoin:round;}
	.st20{fill:url(#SVGID_22_);stroke:#000000;stroke-width:0.1417;stroke-linecap:round;stroke-linejoin:round;}
	.st21{fill:url(#SVGID_23_);stroke:#000000;stroke-width:0.1417;stroke-linecap:round;stroke-linejoin:round;}
	.st22{fill:url(#SVGID_24_);stroke:#000000;stroke-width:0.1417;stroke-linecap:round;stroke-linejoin:round;}
	.st23{fill:url(#SVGID_25_);stroke:#000000;stroke-width:0.1417;stroke-linecap:round;stroke-linejoin:round;}
	.st24{fill:url(#SVGID_26_);stroke:#000000;stroke-width:0.1417;stroke-linecap:round;stroke-linejoin:round;}
	.st25{fill:url(#SVGID_27_);stroke:#000000;stroke-width:0.1417;stroke-linecap:round;stroke-linejoin:round;}
	.st26{fill:url(#SVGID_28_);stroke:#000000;stroke-width:0.1417;stroke-linecap:round;stroke-linejoin:round;}
	.st27{fill:url(#SVGID_29_);stroke:#000000;stroke-width:0.1417;stroke-linecap:round;stroke-linejoin:round;}
	.st28{fill:url(#SVGID_30_);stroke:#000000;stroke-width:0.1417;stroke-linecap:round;stroke-linejoin:round;}
	.st29{fill:url(#SVGID_31_);stroke:#000000;stroke-width:0.1417;stroke-linecap:round;stroke-linejoin:round;}
	.st30{fill:url(#SVGID_32_);stroke:#000000;stroke-width:0.1417;stroke-linecap:round;stroke-linejoin:round;}
	.st31{fill:url(#SVGID_33_);stroke:#000000;stroke-width:0.1417;stroke-linecap:round;stroke-linejoin:round;}
	.st32{fill:url(#SVGID_34_);stroke:#000000;stroke-width:0.1417;stroke-linecap:round;stroke-linejoin:round;}
	.st33{fill:url(#SVGID_35_);stroke:#000000;stroke-width:0.1417;stroke-linecap:round;stroke-linejoin:round;}
	.st34{fill:url(#SVGID_36_);stroke:#000000;stroke-width:0.1417;stroke-linecap:round;stroke-linejoin:round;}
	.st35{fill:url(#SVGID_37_);stroke:#000000;stroke-width:0.1417;stroke-linecap:round;stroke-linejoin:round;}
	.st36{fill:url(#SVGID_38_);stroke:#000000;stroke-width:0.1417;stroke-linecap:round;stroke-linejoin:round;}
	.st37{fill:url(#SVGID_39_);stroke:#000000;stroke-width:0.1417;stroke-linecap:round;stroke-linejoin:round;}
	.st38{fill:url(#SVGID_40_);stroke:#000000;stroke-width:0.1417;stroke-linecap:round;stroke-linejoin:round;}
	.st39{fill:url(#SVGID_41_);stroke:#000000;stroke-width:0.1417;stroke-linecap:round;stroke-linejoin:round;}
	.st40{fill:url(#SVGID_42_);stroke:#000000;stroke-width:0.1417;stroke-linecap:round;stroke-linejoin:round;}
	.st41{fill:url(#SVGID_43_);stroke:#000000;stroke-width:0.1417;stroke-linecap:round;stroke-linejoin:round;}
	.st42{fill:url(#SVGID_44_);stroke:#000000;stroke-width:0.1417;stroke-linecap:round;stroke-linejoin:round;}
	.st43{fill:url(#SVGID_45_);stroke:#000000;stroke-width:0.1417;stroke-linecap:round;stroke-linejoin:round;}
	.st44{fill:url(#SVGID_46_);stroke:#000000;stroke-width:0.1417;stroke-linecap:round;stroke-linejoin:round;}
	.st45{fill:url(#SVGID_47_);stroke:#000000;stroke-width:0.1417;stroke-linecap:round;stroke-linejoin:round;}
	.st46{fill:url(#SVGID_48_);stroke:#000000;stroke-width:0.1417;stroke-linecap:round;stroke-linejoin:round;}
	.st47{fill:#71E4FF;stroke:#000000;stroke-width:0.1417;stroke-linecap:round;stroke-linejoin:round;}
	.st48{fill:url(#SVGID_49_);}
	.st49{fill:none;stroke:#000000;stroke-width:0.1417;stroke-linecap:round;stroke-linejoin:round;}
	.st50{fill:#C0FFFC;stroke:#000000;stroke-width:0.1417;stroke-linecap:round;stroke-linejoin:round;}
	.st51{fill:#0059B2;stroke:#000000;stroke-width:0.1417;stroke-linecap:round;stroke-linejoin:round;}
	.st52{stroke:#000000;stroke-width:0.1417;stroke-linecap:round;stroke-linejoin:round;}
	.st53{fill:url(#SVGID_50_);stroke:#000000;stroke-width:0.1417;stroke-linecap:round;stroke-linejoin:round;}
	.st54{fill:url(#SVGID_51_);stroke:#000000;stroke-width:0.1417;stroke-linecap:round;stroke-linejoin:round;}
	.st55{fill:url(#SVGID_52_);stroke:#000000;stroke-width:0.1417;stroke-linecap:round;stroke-linejoin:round;}
	.st56{fill:url(#SVGID_53_);stroke:#000000;stroke-width:0.1417;stroke-linecap:round;stroke-linejoin:round;}
	.st57{fill:url(#SVGID_54_);stroke:#000000;stroke-width:0.1417;stroke-linecap:round;stroke-linejoin:round;}
	.st58{fill:url(#SVGID_55_);stroke:#000000;stroke-width:0.1417;stroke-linecap:round;stroke-linejoin:round;}
	.st59{fill:url(#SVGID_56_);stroke:#000000;stroke-width:0.1417;stroke-linecap:round;stroke-linejoin:round;}
	.st60{fill:url(#SVGID_57_);stroke:#000000;stroke-width:0.1417;stroke-linecap:round;stroke-linejoin:round;}
	.st61{fill:url(#SVGID_58_);stroke:#000000;stroke-width:0.1417;stroke-linecap:round;stroke-linejoin:round;}
	.st62{fill:url(#SVGID_59_);stroke:#000000;stroke-width:0.1417;stroke-linecap:round;stroke-linejoin:round;}
	.st63{fill:url(#SVGID_60_);stroke:#000000;stroke-width:0.1417;stroke-linecap:round;stroke-linejoin:round;}
	.st64{fill:url(#SVGID_61_);stroke:#000000;stroke-width:0.1417;stroke-linecap:round;stroke-linejoin:round;}
	.st65{fill:url(#SVGID_62_);stroke:#000000;stroke-width:0.1417;stroke-linecap:round;stroke-linejoin:round;}
	.st66{fill:url(#SVGID_63_);stroke:#000000;stroke-width:0.1417;stroke-linecap:round;stroke-linejoin:round;}
	.st67{fill:url(#SVGID_64_);stroke:#000000;stroke-width:0.1417;stroke-linecap:round;stroke-linejoin:round;}
	.st68{fill:url(#SVGID_65_);stroke:#000000;stroke-width:0.1417;stroke-linecap:round;stroke-linejoin:round;}
	.st69{fill:url(#SVGID_66_);stroke:#000000;stroke-width:0.1417;stroke-linecap:round;stroke-linejoin:round;}
	.st70{fill:url(#SVGID_67_);stroke:#000000;stroke-width:0.1417;stroke-linecap:round;stroke-linejoin:round;}
	.st71{fill:url(#SVGID_68_);stroke:#000000;stroke-width:0.1417;stroke-linecap:round;stroke-linejoin:round;}
	.st72{fill:url(#SVGID_69_);stroke:#000000;stroke-width:0.1417;stroke-linecap:round;stroke-linejoin:round;}
	.st73{fill:url(#SVGID_70_);stroke:#000000;stroke-width:0.1417;stroke-linecap:round;stroke-linejoin:round;}
	.st74{fill:url(#SVGID_71_);stroke:#000000;stroke-width:0.1417;stroke-linecap:round;stroke-linejoin:round;}
	.st75{fill:url(#SVGID_72_);stroke:#000000;stroke-width:0.1417;stroke-linecap:round;stroke-linejoin:round;}
	.st76{fill:url(#SVGID_73_);stroke:#000000;stroke-width:0.1417;stroke-linecap:round;stroke-linejoin:round;}
	.st77{fill:url(#SVGID_74_);stroke:#000000;stroke-width:0.1417;stroke-linecap:round;stroke-linejoin:round;}
	.st78{fill:url(#SVGID_75_);stroke:#000000;stroke-width:0.1417;stroke-linecap:round;stroke-linejoin:round;}
	.st79{fill:url(#SVGID_76_);stroke:#000000;stroke-width:0.1417;stroke-linecap:round;stroke-linejoin:round;}
	.st80{fill:url(#SVGID_77_);stroke:#000000;stroke-width:0.1417;stroke-linecap:round;stroke-linejoin:round;}
	.st81{fill:url(#SVGID_78_);stroke:#000000;stroke-width:0.1417;stroke-linecap:round;stroke-linejoin:round;}
	.st82{fill:url(#SVGID_79_);stroke:#000000;stroke-width:0.1417;stroke-linecap:round;stroke-linejoin:round;}
	.st83{fill:url(#SVGID_80_);stroke:#000000;stroke-width:0.1417;stroke-linecap:round;stroke-linejoin:round;}
	.st84{fill:url(#SVGID_81_);stroke:#000000;stroke-width:0.1417;stroke-linecap:round;stroke-linejoin:round;}
	.st85{fill:url(#SVGID_82_);stroke:#000000;stroke-width:0.1417;stroke-linecap:round;stroke-linejoin:round;}
	.st86{fill:url(#SVGID_83_);stroke:#000000;stroke-width:0.1417;stroke-linecap:round;stroke-linejoin:round;}
	.st87{fill:url(#SVGID_84_);stroke:#000000;stroke-width:0.1417;stroke-linecap:round;stroke-linejoin:round;}
	.st88{fill:url(#SVGID_85_);stroke:#000000;stroke-width:0.1417;stroke-linecap:round;stroke-linejoin:round;}
	.st89{fill:url(#SVGID_86_);stroke:#000000;stroke-width:0.1417;stroke-linecap:round;stroke-linejoin:round;}
	.st90{fill:url(#SVGID_87_);stroke:#000000;stroke-width:0.1417;stroke-linecap:round;stroke-linejoin:round;}
	.st91{fill:url(#SVGID_88_);stroke:#000000;stroke-width:0.1417;stroke-linecap:round;stroke-linejoin:round;}
	.st92{fill:url(#SVGID_89_);stroke:#000000;stroke-width:0.1417;stroke-linecap:round;stroke-linejoin:round;}
	.st93{fill:url(#SVGID_90_);stroke:#000000;stroke-width:0.1417;stroke-linecap:round;stroke-linejoin:round;}
	.st94{fill:url(#SVGID_91_);stroke:#000000;stroke-width:0.1417;stroke-linecap:round;stroke-linejoin:round;}
	.st95{fill:url(#SVGID_92_);stroke:#000000;stroke-width:0.1417;stroke-linecap:round;stroke-linejoin:round;}
	.st96{fill:url(#SVGID_93_);stroke:#000000;stroke-width:0.1417;stroke-linecap:round;stroke-linejoin:round;}
	.st97{fill:url(#SVGID_94_);}
</style>
<g id="圖層_1">
	<g>
		<g>
			<path class="st2" d="M145.4,37.6h18.2v22.6h-3.4v-1.7h-11.6v1.7h-3.2V37.6z M160.3,40.8h-11.6v5.6h11.6V40.8z M148.7,55.4h11.6
				v-5.9h-11.6V55.4z"/>
			<path class="st2" d="M195.6,49.4h-10c-0.1,0.3-0.4,0.7-0.7,1.2h10l-0.1,1.1c-0.2,4.3-0.6,6.8-1.1,7.6c-0.1,0.1-0.1,0.2-0.2,0.2
				c-0.4,0.5-0.9,0.8-1.6,0.9c-0.6,0.1-1.5,0.1-2.5,0.1c0-0.9-0.3-1.7-0.7-2.6c0.7,0.1,1.2,0.1,1.7,0.1c0.3,0,0.6-0.1,0.7-0.3
				c0.3-0.4,0.6-2,0.8-4.7h-0.6c-1.2,3.1-3,5.6-5.2,7.4c-0.4-0.5-1.1-1.1-1.9-1.7c1.8-1.4,3.3-3.2,4.4-5.7h-1.3
				c-1.3,2.5-3.2,4.6-5.5,6.3c-0.3,0.2-0.6,0.4-0.9,0.6c-0.7-0.9-1.3-1.5-1.7-1.9c2.2-1.2,4-2.9,5.3-4.9h-1.3
				c-0.9,1-1.9,1.9-2.9,2.7c-0.5-0.6-1.1-1.2-1.6-1.7c-0.4,0.2-0.8,0.4-1.4,0.5c-0.5,0.1-1.1,0.1-1.7,0.1c0-1-0.3-1.9-0.7-2.7
				c0.3,0,0.7,0,1.2,0c0.3,0,0.6-0.1,0.7-0.2c0.3-0.2,0.4-0.7,0.4-1.5c0-1.6-0.6-3.2-1.8-4.6c0.5-1.5,1-3.4,1.5-5.7h-2.1v20.6h-2.7
				V37.2h5.7l0.4-0.1l2.1,1.2c-1.2,3.9-2,6.2-2.3,7.1c1.3,1.6,1.9,3.4,1.9,5.3c0,1-0.1,1.8-0.4,2.4c1.3-1.1,2.4-2.3,3.1-3.6H180V47
				h15.6V49.4z M193.8,37v9H182v-9H193.8z M190.8,40.5v-1.3h-6v1.3H190.8z M190.8,43.8v-1.3h-6v1.3H190.8z"/>
			<path class="st2" d="M208.4,52v4.3c1.2,0.3,2.9,0.5,5.1,0.5c0.9,0,2.7,0,5.5,0c2.8,0,4.7,0,5.8-0.1c-0.6,0.9-1,1.9-1.2,3.1h-10.1
				c-2.6,0-4.7-0.2-6.3-0.7c-1.5-0.5-2.8-1.4-3.8-2.8c-0.3,1.9-0.7,3.4-1.2,4.6c-0.8-0.5-1.7-0.9-2.6-1.3c1-2.1,1.5-5.9,1.6-11.5
				l2.9,0.2c0,0.1-0.1,1.2-0.2,3.4c0.4,1.2,0.9,2.3,1.6,3v-8.2h-5.3v-2.7h4.6v-2.5H201v-2.7h3.9v-2.6h2.9v2.6h3.9v2.7h-3.9v2.5h4.5
				v2.7h-4v2.8h3.7V52H208.4z M220.8,55.3h-3.9c-1.5,0-2.4-0.3-3-0.8c-0.5-0.6-0.8-1.7-0.8-3.3V37.4h10v9.8h-7v3.9
				c0,0.6,0.1,1,0.2,1.1c0.1,0.2,0.5,0.2,1,0.2h3.2c0.4,0,0.7-0.2,0.9-0.6c0.2-0.4,0.3-1.2,0.3-2.4c0.8,0.6,1.7,1,2.7,1.2
				c-0.2,1.7-0.5,2.9-1,3.6C222.9,55,222,55.3,220.8,55.3z M220.1,40.1h-3.9v4.3h3.9V40.1z"/>
			<path class="st2" d="M242.6,57.3h10.5v2.5h-23.8v-2.5h10.2V56h-8.3v-2.3h8.3v-1.2H232v-8.3h7.4v-1h-10v-2.4h10v-1.2
				c-2.8,0.1-5.2,0.2-7.4,0.2c0-0.6-0.2-1.4-0.6-2.4c7.5-0.2,13.4-0.6,17.7-1.3l1.5,2.4c-2.4,0.4-5,0.7-7.9,0.9v1.4h10.3v2.4h-10.3
				v1h7.8v8.3h-7.8v1.2h8.8V56h-8.8V57.3z M235.1,46.2v1.2h4.4v-1.2H235.1z M235.1,50.4h4.4v-1.2h-4.4V50.4z M247.2,46.2h-4.6v1.2
				h4.6V46.2z M247.2,50.4v-1.2h-4.6v1.2H247.2z"/>
			<path class="st2" d="M271.7,55.6H282v3.1h-23.9v-3.1h10V42h-8.6v-3.3h21V42h-8.8V55.6z"/>
			<path class="st2" d="M294.9,53.4c-0.2-0.4-0.4-0.9-0.7-1.5c-0.3-0.6-0.6-1.2-0.9-1.8v10.5h-2.9v-9.8c-0.4,1.1-0.8,2.1-1.2,3.1
				c-0.4,1-0.9,1.8-1.4,2.6c-0.1-0.2-0.2-0.5-0.3-0.8c-0.1-0.3-0.2-0.6-0.3-0.8c-0.1-0.3-0.3-0.6-0.4-0.8c-0.1-0.3-0.2-0.5-0.3-0.7
				c0.3-0.4,0.6-0.9,0.9-1.5c0.3-0.5,0.6-1.1,0.9-1.7c0.3-0.6,0.5-1.2,0.8-1.9c0.2-0.6,0.5-1.3,0.7-1.9h-2.9v-2.9h3.6v-3.2
				c-0.4,0.1-0.9,0.2-1.3,0.2s-0.8,0.1-1.2,0.2c-0.1-0.4-0.2-0.8-0.3-1.2c-0.2-0.5-0.3-0.9-0.5-1.2c0.7-0.1,1.3-0.3,2-0.4
				c0.7-0.2,1.4-0.3,2-0.5c0.7-0.2,1.3-0.4,1.9-0.6c0.6-0.2,1.1-0.4,1.6-0.7l1.6,2.6c-0.5,0.2-0.9,0.4-1.4,0.5
				c-0.5,0.2-1,0.3-1.5,0.4v3.8h2.9v2.9h-2.9v0.4c0.2,0.2,0.4,0.5,0.7,0.9c0.3,0.4,0.7,0.8,1,1.2c0.3,0.4,0.6,0.8,0.9,1.2
				c0.3,0.4,0.5,0.7,0.6,0.8L294.9,53.4z M310.9,57.2V60h-15.2v-2.8h6.3v-2.4h-5v-2.7h5V50c-0.7,0.1-1.4,0.1-2.1,0.1
				c-0.7,0-1.4,0.1-2,0.1c-0.1-0.3-0.2-0.7-0.3-1.2c-0.2-0.5-0.3-0.9-0.5-1.2c0.9-0.1,1.9-0.1,2.9-0.2c1-0.1,1.9-0.2,2.9-0.3
				c0.9-0.1,1.8-0.3,2.7-0.4c0.8-0.1,1.6-0.3,2.3-0.5l1.9,2.4c-0.7,0.2-1.4,0.3-2.2,0.5c-0.8,0.1-1.6,0.3-2.4,0.4v2.5h4.7v2.7h-4.7
				v2.4H310.9z M309.6,46.1h-12.4v-9h12.4V46.1z M306.6,39.7h-6.5v3.8h6.5V39.7z"/>
			<path class="st2" d="M339.4,42.1h-14.1c-0.2,0.5-0.6,1.2-1.1,2.1h12.2v13c0,1.3-0.3,2.1-0.8,2.6c-0.2,0.1-0.3,0.2-0.5,0.3
				c-0.7,0.3-2.1,0.5-4.2,0.5c-0.1,0-0.3,0-0.4,0c-0.2-1-0.5-2-0.9-3c0.9,0.1,2,0.1,3.3,0.1c0.4-0.1,0.6-0.3,0.6-0.5v-1.6H324v5
				h-3.1V49.1c-1.1,1.2-2.3,2.2-3.5,3.1c-0.4-0.7-1.1-1.5-2.1-2.4c2.6-1.8,4.8-4.4,6.5-7.7h-5.8v-2.9h7.1c0.5-1.2,0.8-2.3,1-3.2
				l3.2,0.7c-0.3,0.8-0.5,1.6-0.8,2.5h12.8V42.1z M333.4,48.6v-1.7H324v1.7H333.4z M324,52.9h9.5v-1.7H324V52.9z"/>
			<path class="st2" d="M352.2,37l2.1,1.2c-1.3,4-2.1,6.3-2.4,7.1c0,0,0,0.1-0.1,0.1c1.3,1.6,2,3.4,2,5.4c0,1.7-0.4,2.8-1.2,3.4
				c-0.4,0.3-0.9,0.5-1.5,0.6c-0.3,0-0.9,0.1-1.8,0.1c0-1.1-0.3-2-0.7-2.8c0.3,0,0.8,0,1.2,0c0.3,0,0.5-0.1,0.7-0.2
				c0.3-0.3,0.5-0.7,0.5-1.5c0-1.6-0.7-3.1-1.9-4.6c0.4-1.4,1-3.3,1.6-5.9h-2.3v20.6h-2.9V37.2h6.2L352.2,37z M366,49.6l2.4,1.7
				c-1.2,1.1-2.3,2.1-3.5,3.1c1.1,1.6,2.5,2.7,4.1,3.5c-0.8,0.8-1.5,1.6-2,2.5c0,0.1,0,0.1-0.1,0.1c-3-1.6-5.2-4.6-6.5-9
				c-0.2-0.7-0.4-1.4-0.6-2.1H358v6.8c0.2,0,1.5-0.3,3.8-0.7l0.2,2.7c-1.2,0.3-2.9,0.7-5.3,1.2c-1.6,0.3-2.8,0.6-3.4,0.7l-1-3
				c0.1,0,1-0.2,2.7-0.4V37.2h12.2v12.2h-4.6c0.2,0.8,0.6,1.8,1,2.8C364.7,51.1,365.5,50.2,366,49.6z M364.1,39.9H358V42h6.1V39.9z
				 M358,44.5v2.2h6.1v-2.2H358z"/>
			<path class="st2" d="M378.6,40.1l3.4,1c-1.4,2.8-3,5.1-5.1,7c-0.4,0.4-0.8,0.7-1.2,1.1c-0.9-0.9-1.7-1.7-2.5-2.2
				c1.7-1.3,3.2-2.9,4.4-5.1C378.1,41.3,378.4,40.6,378.6,40.1z M388.3,51.4l2.9-1.4c2.2,2.6,4.1,5.3,5.6,8c0.2,0.4,0.4,0.8,0.6,1.1
				l-3.1,1.6c-0.1-0.3-0.5-1-1.1-2.1c-6.4,0.3-12.4,0.6-18.1,0.8l-0.4-3.3c1.9,0,3.1-0.1,3.8-0.1c1.7-3,3.1-6.4,4.3-10.1
				c0.1-0.2,0.1-0.4,0.2-0.5l3.7,0.9c-1.5,3.5-3,6.7-4.7,9.6c2.1-0.1,5.2-0.1,9.3-0.3C390.1,53.8,389.1,52.4,388.3,51.4z
				 M380.9,37.1h10.3c1.1,2.7,2.7,5.2,4.8,7.3c0.7,0.7,1.4,1.3,2.1,1.8c-0.9,0.5-1.8,1.2-2.7,2.1c-0.1,0.1-0.1,0.1-0.2,0.2
				c-2.3-2.1-4.4-4.8-6.2-8.2c0-0.1-0.1-0.2-0.1-0.2h-8.1V37.1z"/>
			<path class="st2" d="M425,37.6v19c0,1.4-0.3,2.4-0.9,2.9c-0.2,0.2-0.4,0.3-0.6,0.4c-0.8,0.4-2.5,0.6-4.9,0.6c-0.1,0-0.1,0-0.2,0
				c-0.1-1.1-0.5-2.2-1-3.4c1.3,0.1,2.5,0.1,3.7,0.1c0.4,0,0.6-0.2,0.7-0.6v-16h-18.3v-3H425z M419.1,42.5v2.7h-15.4v-2.7H419.1z
				 M417.8,56h-9.7v1.9H405V47.1h12.7V56z M414.7,49.8h-6.6v3.5h6.6V49.8z"/>
		</g>
		<g>
			<path class="st2" d="M246.3,86.7c-1.3,0-2.4-0.4-3.4-1.2c-0.1-0.1-0.2-0.2-0.3-0.3l1.2-1.4c0.7,0.7,1.5,1.1,2.4,1.1
				c0.1,0,0.2,0,0.2,0c0.9,0,1.4-0.3,1.6-0.8c0-0.1,0-0.2,0-0.3c0-0.4-0.2-0.7-0.6-1c-0.2-0.1-0.4-0.2-0.9-0.4l-1.4-0.6
				c-1.4-0.6-2-1.5-2.1-2.7c0-0.9,0.4-1.7,1.1-2.2c0.7-0.5,1.4-0.7,2.4-0.7c1.1,0,2.1,0.4,2.9,1.1c0.1,0.1,0.2,0.2,0.3,0.2l-1,1.3
				c-0.7-0.6-1.4-0.8-2.2-0.8c-0.7,0-1.2,0.2-1.4,0.7c0,0.1-0.1,0.3-0.1,0.4c0,0.4,0.3,0.7,0.8,1c0.2,0.1,0.4,0.2,0.8,0.3l1.3,0.6
				c1.1,0.5,1.8,1.1,2,2.1c0,0.2,0.1,0.5,0.1,0.7c0,0.9-0.4,1.7-1.1,2.3C248.2,86.4,247.3,86.7,246.3,86.7z"/>
			<path class="st2" d="M255.3,86.7c-1.6,0-2.4-1-2.4-3.1v-4.8h2v4.5c0,0.9,0.2,1.4,0.6,1.5c0.1,0,0.3,0.1,0.4,0.1
				c0.5,0,0.9-0.2,1.3-0.7c0.1-0.1,0.2-0.2,0.2-0.3v-5.2h2v7.7H258l-0.2-1.1h-0.1C257,86.2,256.2,86.7,255.3,86.7z"/>
			<path class="st2" d="M263.1,86.5v-7.7h1.7l0.1,1h0.1c0.8-0.8,1.7-1.2,2.5-1.2c1.6,0,2.4,1.1,2.4,3.1v4.8h-2v-4.5
				c0-0.9-0.2-1.4-0.7-1.6c-0.1,0-0.3-0.1-0.4-0.1c-0.4,0-0.9,0.2-1.3,0.6c-0.1,0.1-0.2,0.2-0.3,0.3v5.3H263.1z"/>
			<path class="st2" d="M273.3,86.5v-7.7h1.7l0.1,1.4h0.1c0.5-0.8,1.1-1.3,1.8-1.5c0.2,0,0.3-0.1,0.4-0.1c0.3,0,0.6,0.1,0.9,0.2
				l-0.4,1.7c-0.3-0.1-0.6-0.1-0.8-0.1c-0.6,0-1.1,0.3-1.5,1c-0.1,0.2-0.2,0.3-0.2,0.5v4.6H273.3z"/>
			<path class="st2" d="M281.7,77.6c-0.5,0-0.9-0.2-1.1-0.6c-0.1-0.2-0.1-0.3-0.1-0.5c0-0.5,0.2-0.8,0.7-1c0.2-0.1,0.4-0.1,0.6-0.1
				c0.5,0,0.9,0.2,1.1,0.6c0.1,0.2,0.1,0.3,0.1,0.5c0,0.4-0.2,0.8-0.6,1C282.1,77.5,281.9,77.6,281.7,77.6z M280.7,86.5v-7.7h2v7.7
				H280.7z"/>
			<path class="st2" d="M288.4,86.7c-0.9,0-1.8-0.3-2.6-0.8c-0.1-0.1-0.2-0.2-0.3-0.3l0.9-1.3c0.7,0.6,1.4,0.8,2.1,0.8
				c0.7-0.1,1.1-0.3,1.1-0.8c0-0.3-0.3-0.6-0.8-0.8c-0.1,0-0.3-0.1-0.8-0.3c-1.1-0.4-1.8-1-2-1.6c-0.1-0.2-0.1-0.4-0.1-0.6
				c0-0.8,0.4-1.5,1.1-1.9c0.5-0.3,1.1-0.4,1.8-0.4c0.9,0,1.8,0.3,2.6,1l-0.9,1.2c-0.6-0.4-1.2-0.7-1.7-0.7c-0.6,0-1,0.3-1,0.7
				c0,0.3,0.2,0.6,0.7,0.8c0,0,0.3,0.1,0.8,0.3c0.9,0.3,1.4,0.7,1.7,1.1c0.3,0.3,0.4,0.8,0.4,1.2c0,0.9-0.4,1.5-1.1,2
				C289.9,86.5,289.2,86.7,288.4,86.7z"/>
			<path class="st2" d="M297.7,86.7c-1.2,0-2.2-0.4-2.9-1.2c-0.6-0.7-0.9-1.7-0.9-2.8c0-1.3,0.4-2.4,1.3-3.2
				c0.7-0.6,1.4-0.9,2.3-0.9c1.3,0,2.2,0.5,2.7,1.6c0.3,0.6,0.5,1.3,0.5,2.1c0,0.4,0,0.7-0.1,0.9h-4.7c0.1,0.9,0.6,1.5,1.3,1.8
				c0.2,0.1,0.5,0.1,0.8,0.1c0.6,0,1.2-0.2,1.7-0.5l0.7,1.2C299.6,86.4,298.7,86.7,297.7,86.7z M295.8,81.9h3.1c0-1-0.4-1.6-1.2-1.7
				c-0.1,0-0.2,0-0.3,0c-0.6,0-1.1,0.3-1.4,0.8C296,81.3,295.9,81.6,295.8,81.9z"/>
			<path class="st2" d="M312.5,86.7c-1.4,0-2.5-0.5-3.4-1.4c-0.8-1-1.3-2.2-1.3-3.8c0-1.7,0.5-3.1,1.6-4.1c0.9-0.8,1.9-1.2,3.1-1.2
				c1.1,0,2.1,0.4,2.9,1.2c0,0,0,0,0.1,0.1l-1.1,1.3c-0.6-0.6-1.2-0.8-1.9-0.8c-0.9,0-1.6,0.4-2.1,1.2c-0.4,0.6-0.6,1.4-0.6,2.3
				c0,1.4,0.4,2.5,1.2,3.1c0.4,0.3,0.9,0.5,1.5,0.5c0.8,0,1.5-0.3,2.1-1l1.1,1.3C314.9,86.2,313.8,86.7,312.5,86.7z"/>
			<path class="st2" d="M318.6,86.5v-7.7h1.7l0.1,1.4h0.1c0.5-0.8,1.1-1.3,1.8-1.5c0.2,0,0.3-0.1,0.4-0.1c0.3,0,0.6,0.1,0.9,0.2
				l-0.4,1.7c-0.3-0.1-0.6-0.1-0.8-0.1c-0.6,0-1.1,0.3-1.5,1c-0.1,0.2-0.2,0.3-0.2,0.5v4.6H318.6z"/>
			<path class="st2" d="M327.9,86.7c-0.8,0-1.5-0.3-1.9-1c-0.3-0.4-0.4-0.8-0.4-1.3c0-1.1,0.6-1.8,1.8-2.3c0.7-0.3,1.5-0.4,2.6-0.5
				c-0.1-0.9-0.5-1.3-1.3-1.3c-0.6,0-1.3,0.3-2.1,0.7l-0.7-1.3c1.1-0.7,2.2-1,3.2-1c1.7,0,2.7,0.9,2.9,2.6c0,0.2,0,0.5,0,0.8v4.5
				h-1.6l-0.2-0.8h0C329.4,86.3,328.6,86.7,327.9,86.7z M328.5,85.1c0.5,0,1-0.3,1.5-0.8v-1.5c-1.6,0.3-2.4,0.7-2.5,1.4
				c0,0.5,0.3,0.8,0.8,0.9C328.4,85.1,328.5,85.1,328.5,85.1z"/>
			<path class="st2" d="M335.4,86.5v-7.7h1.7l0.1,1h0.1c0.8-0.8,1.7-1.2,2.5-1.2c1.6,0,2.4,1.1,2.4,3.1v4.8h-2v-4.5
				c0-0.9-0.2-1.4-0.7-1.6c-0.1,0-0.3-0.1-0.4-0.1c-0.4,0-0.9,0.2-1.3,0.6c-0.1,0.1-0.2,0.2-0.3,0.3v5.3H335.4z"/>
			<path class="st2" d="M349,86.7c-1.2,0-2.2-0.4-2.9-1.2c-0.6-0.7-0.9-1.7-0.9-2.8c0-1.3,0.4-2.4,1.3-3.2c0.7-0.6,1.4-0.9,2.3-0.9
				c1.3,0,2.2,0.5,2.7,1.6c0.3,0.6,0.5,1.3,0.5,2.1c0,0.4,0,0.7-0.1,0.9h-4.7c0.1,0.9,0.6,1.5,1.3,1.8c0.2,0.1,0.5,0.1,0.8,0.1
				c0.6,0,1.2-0.2,1.7-0.5l0.7,1.2C350.8,86.4,349.9,86.7,349,86.7z M347.1,81.9h3.1c0-1-0.4-1.6-1.2-1.7c-0.1,0-0.2,0-0.3,0
				c-0.6,0-1.1,0.3-1.4,0.8C347.2,81.3,347.1,81.6,347.1,81.9z"/>
			<path class="st2" d="M363.8,86.7c-1.4,0-2.5-0.5-3.4-1.4c-0.8-1-1.3-2.2-1.3-3.8c0-1.7,0.5-3.1,1.6-4.1c0.9-0.8,1.9-1.2,3.1-1.2
				c1.1,0,2.1,0.4,2.9,1.2c0,0,0,0,0.1,0.1l-1.1,1.3c-0.6-0.6-1.2-0.8-1.9-0.8c-0.9,0-1.6,0.4-2.1,1.2c-0.4,0.6-0.6,1.4-0.6,2.3
				c0,1.4,0.4,2.5,1.2,3.1c0.4,0.3,0.9,0.5,1.5,0.5c0.8,0,1.5-0.3,2.1-1l1.1,1.3C366.2,86.2,365.1,86.7,363.8,86.7z"/>
			<path class="st2" d="M373.1,86.7c-1,0-1.9-0.4-2.6-1.1c-0.7-0.8-1.1-1.7-1.1-2.9c0-1.4,0.5-2.4,1.4-3.2c0.7-0.6,1.5-0.9,2.3-0.9
				c1,0,1.9,0.4,2.6,1.1c0.7,0.8,1.1,1.7,1.1,2.9c0,1.4-0.5,2.4-1.4,3.2C374.7,86.4,373.9,86.7,373.1,86.7z M373.1,85
				c0.7,0,1.2-0.4,1.5-1.2c0.1-0.3,0.1-0.7,0.1-1.1c0-1.2-0.3-1.9-0.9-2.2c-0.2-0.1-0.4-0.2-0.7-0.2c-0.7,0-1.2,0.4-1.5,1.2
				c-0.1,0.3-0.2,0.7-0.2,1.2c0,1.1,0.3,1.9,0.9,2.2C372.6,85,372.8,85,373.1,85z"/>
			<path class="st2" d="M381,86.7c-0.5,0-0.8-0.2-1.1-0.6c-0.1-0.2-0.2-0.4-0.2-0.7c0-0.5,0.2-0.9,0.6-1.1c0.2-0.1,0.4-0.2,0.6-0.2
				c0.5,0,0.9,0.2,1.1,0.6c0.1,0.2,0.2,0.4,0.2,0.7c0,0.5-0.2,0.9-0.6,1.1C381.4,86.6,381.2,86.7,381,86.7z"/>
			<path class="st2" d="M385.7,89.4l-0.4-1.1c0.9-0.3,1.5-0.9,1.6-1.5c0-0.1,0-0.2,0-0.3h-0.1c-0.5,0-0.9-0.2-1.1-0.6
				c-0.1-0.2-0.2-0.4-0.2-0.6c0-0.5,0.2-0.8,0.7-1.1c0.2-0.1,0.4-0.1,0.6-0.1c0.7,0,1.2,0.4,1.4,1.2c0.1,0.2,0.1,0.5,0.1,0.8
				c0,1.3-0.5,2.2-1.6,2.9C386.4,89.1,386.1,89.3,385.7,89.4z"/>
			<path class="st2" d="M396.1,86.5V76.3h2v8.5h4.1v1.7H396.1z"/>
			<path class="st2" d="M408.1,86.7c-1.7,0-2.5-1-2.5-2.9v-3.4h-1.1v-1.5l1.2-0.1l0.2-2.1h1.7v2.1h1.9v1.6h-1.9v3.4
				c0,0.9,0.4,1.3,1,1.3c0.2,0,0.5-0.1,0.8-0.2l0.3,1.5C409.1,86.6,408.6,86.7,408.1,86.7z"/>
			<path class="st2" d="M415.1,86.7c-1.1,0-2-0.5-2.5-1.5c-0.4-0.7-0.6-1.5-0.6-2.6c0-1.3,0.4-2.4,1.2-3.2c0.6-0.6,1.3-0.8,2-0.8
				c0.7,0,1.2,0.2,1.8,0.7c0.1,0.1,0.1,0.1,0.2,0.1l-0.1-1.2v-2.7h2v11h-1.6l-0.2-0.8h0C416.5,86.3,415.8,86.7,415.1,86.7z
				 M415.6,85c0.5,0,1-0.3,1.4-0.8v-3.4c-0.4-0.4-0.9-0.6-1.4-0.6c-0.6,0-1,0.3-1.3,0.9c-0.2,0.4-0.3,0.9-0.3,1.4
				c0,1.5,0.5,2.3,1.4,2.4C415.5,85,415.6,85,415.6,85z"/>
			<path class="st2" d="M423.7,86.7c-0.5,0-0.8-0.2-1.1-0.6c-0.1-0.2-0.2-0.4-0.2-0.7c0-0.5,0.2-0.9,0.6-1.1
				c0.2-0.1,0.4-0.2,0.6-0.2c0.5,0,0.9,0.2,1.1,0.6c0.1,0.2,0.2,0.4,0.2,0.7c0,0.5-0.2,0.9-0.6,1.1C424.2,86.6,424,86.7,423.7,86.7z
				"/>
		</g>
		<g>
			
				<linearGradient id="SVGID_2_" gradientUnits="userSpaceOnUse" x1="74.8321" y1="263.5376" x2="164.1343" y2="203.2491" gradientTransform="matrix(0.9736 0.2282 -0.2282 0.9736 -39.0272 -150.4889)">
				<stop  offset="0" style="stop-color:#FFFFFF"/>
				<stop  offset="1" style="stop-color:#FF6700"/>
			</linearGradient>
			<path style="fill:url(#SVGID_2_);stroke:#000000;stroke-width:0.1417;stroke-linecap:round;stroke-linejoin:round;" d="
				M104.9,74.6c0.3-0.4,0.6-0.8,1-1.1l-2.6-1c0.1,0.7,0.5,1.4,0.9,2L104.9,74.6z"/>
			
				<linearGradient id="SVGID_4_" gradientUnits="userSpaceOnUse" x1="79.1352" y1="269.9115" x2="168.4374" y2="209.6231" gradientTransform="matrix(0.9736 0.2282 -0.2282 0.9736 -39.0272 -150.4889)">
				<stop  offset="0" style="stop-color:#FFFFFF"/>
				<stop  offset="1" style="stop-color:#FF6700"/>
			</linearGradient>
			<path style="fill:url(#SVGID_4_);stroke:#000000;stroke-width:0.1417;stroke-linecap:round;stroke-linejoin:round;" d="
				M88.5,88.1c0.1,0,0.2,0,0.4-0.1c0.2-0.1,0.3-0.1,0.5-0.2l-0.4-0.7c-0.4,0.2-0.8,0.4-1.2,0.6C88,87.8,88.3,87.9,88.5,88.1z"/>
			
				<linearGradient id="SVGID_5_" gradientUnits="userSpaceOnUse" x1="79.0352" y1="269.7635" x2="168.3374" y2="209.475" gradientTransform="matrix(0.9736 0.2282 -0.2282 0.9736 -39.0272 -150.4889)">
				<stop  offset="0" style="stop-color:#FFFFFF"/>
				<stop  offset="1" style="stop-color:#FF6700"/>
			</linearGradient>
			<path class="st3" d="M91.2,86.9c0.3-0.2,0.6-0.3,0.9-0.5c0.3-0.2,0.6-0.3,0.9-0.5l-0.3-0.4c-0.7,0.3-1.4,0.5-2.1,0.8L91.2,86.9z"
				/>
			
				<linearGradient id="SVGID_6_" gradientUnits="userSpaceOnUse" x1="79.5057" y1="270.4604" x2="168.808" y2="210.172" gradientTransform="matrix(0.9736 0.2282 -0.2282 0.9736 -39.0272 -150.4889)">
				<stop  offset="0" style="stop-color:#FFFFFF"/>
				<stop  offset="1" style="stop-color:#FF6700"/>
			</linearGradient>
			<path class="st4" d="M68.7,94.1l0.2,3.5c0.1,0,0.2,0,0.3,0c0.2-0.7,0.9-1.1,1.5-1.1l0.1-2.6C70.1,93.9,69.4,94,68.7,94.1z"/>
			
				<linearGradient id="SVGID_7_" gradientUnits="userSpaceOnUse" x1="78.8093" y1="269.4289" x2="168.1116" y2="209.1405" gradientTransform="matrix(0.9736 0.2282 -0.2282 0.9736 -39.0272 -150.4889)">
				<stop  offset="0" style="stop-color:#FFFFFF"/>
				<stop  offset="1" style="stop-color:#FF6700"/>
			</linearGradient>
			<path class="st5" d="M64.7,94.7l-0.1,1c0.6,0.1,1.2,0.4,1.4,1c0,0.1,0.1,0.2,0.1,0.3c0.1,0,0.1-0.1,0.2-0.1l0.5-2.5
				C66.1,94.5,65.4,94.6,64.7,94.7z"/>
			
				<linearGradient id="SVGID_8_" gradientUnits="userSpaceOnUse" x1="81.7824" y1="273.8327" x2="171.0846" y2="213.5443" gradientTransform="matrix(0.9736 0.2282 -0.2282 0.9736 -39.0272 -150.4889)">
				<stop  offset="0" style="stop-color:#FFFFFF"/>
				<stop  offset="1" style="stop-color:#FF6700"/>
			</linearGradient>
			<path class="st6" d="M81.5,94.6l0.7,1.4c0-0.5,0.1-1,0.2-1.5C82,94.6,81.7,94.6,81.5,94.6z"/>
			
				<linearGradient id="SVGID_9_" gradientUnits="userSpaceOnUse" x1="81.1831" y1="272.9451" x2="170.4854" y2="212.6566" gradientTransform="matrix(0.9736 0.2282 -0.2282 0.9736 -39.0272 -150.4889)">
				<stop  offset="0" style="stop-color:#FFFFFF"/>
				<stop  offset="1" style="stop-color:#FF6700"/>
			</linearGradient>
			<path class="st7" d="M78.3,98.7c0.1-0.4,0.2-0.7,0.2-1.1c0.1-0.4,0.4-0.8,0.8-0.9l-0.8-3.9c-0.7,0.1-1.4,0.2-2.2,0.3L78.3,98.7z"
				/>
			
				<linearGradient id="SVGID_10_" gradientUnits="userSpaceOnUse" x1="80.7199" y1="272.2589" x2="170.0222" y2="211.9705" gradientTransform="matrix(0.9736 0.2282 -0.2282 0.9736 -39.0272 -150.4889)">
				<stop  offset="0" style="stop-color:#FFFFFF"/>
				<stop  offset="1" style="stop-color:#FF6700"/>
			</linearGradient>
			<path class="st8" d="M73.6,99c0.4,0.1,0.7,0.2,1.1,0.2c0,0,0,0,0,0c0.1-0.3,0.2-0.6,0.4-0.7l-0.4-5.2c-0.7,0.1-1.5,0.2-2.2,0.3
				L73.6,99z"/>
			
				<linearGradient id="SVGID_11_" gradientUnits="userSpaceOnUse" x1="88.2924" y1="286.2473" x2="178.9095" y2="225.0713" gradientTransform="matrix(0.968 0.2511 -0.2511 0.968 -36.0316 -168.2854)">
				<stop  offset="0" style="stop-color:#FFFFFF"/>
				<stop  offset="1" style="stop-color:#FF6700"/>
			</linearGradient>
			<path class="st9" d="M115,82.1l0.5,0.2c0.1,0,0.2,0,0.4,0l-0.7-0.4C115.1,82,115,82.1,115,82.1z"/>
			
				<linearGradient id="SVGID_12_" gradientUnits="userSpaceOnUse" x1="81.1361" y1="275.647" x2="171.7531" y2="214.4709" gradientTransform="matrix(0.968 0.2511 -0.2511 0.968 -36.0316 -168.2854)">
				<stop  offset="0" style="stop-color:#FFFFFF"/>
				<stop  offset="1" style="stop-color:#FF6700"/>
			</linearGradient>
			<path class="st10" d="M106.2,73.2c0.4-0.3,1-0.5,1.5-0.4c0.1-0.1,0.3-0.1,0.4-0.2c0,0,0,0,0,0c-0.1-0.1-0.2-0.2-0.4-0.2l-3.4-1.4
				c-0.3,0.2-0.7,0.4-0.9,0.7c-0.1,0.1-0.2,0.3-0.2,0.4c0,0.2,0,0.5,0.1,0.7l2.5,0.7C106,73.4,106.1,73.3,106.2,73.2z"/>
			
				<linearGradient id="SVGID_13_" gradientUnits="userSpaceOnUse" x1="68.0572" y1="256.274" x2="158.6743" y2="195.0979" gradientTransform="matrix(0.968 0.2511 -0.2511 0.968 -36.0316 -168.2854)">
				<stop  offset="0" style="stop-color:#FFFFFF"/>
				<stop  offset="1" style="stop-color:#FF6700"/>
			</linearGradient>
			<path class="st11" d="M27.2,74.9l-1.9,0.7l2.4-0.6C27.5,75,27.4,75,27.2,74.9z"/>
			
				<linearGradient id="SVGID_14_" gradientUnits="userSpaceOnUse" x1="85.917" y1="282.7288" x2="176.5341" y2="221.5527" gradientTransform="matrix(0.968 0.2511 -0.2511 0.968 -36.0316 -168.2854)">
				<stop  offset="0" style="stop-color:#FFFFFF"/>
				<stop  offset="1" style="stop-color:#FF6700"/>
			</linearGradient>
			<path class="st12" d="M93.3,85.7c0.6-0.3,1.2-0.7,1.8-1.1c-0.7,0.2-1.4,0.5-2.2,0.8L93.3,85.7z"/>
			
				<linearGradient id="SVGID_15_" gradientUnits="userSpaceOnUse" x1="87.5674" y1="285.1735" x2="178.1845" y2="223.9974" gradientTransform="matrix(0.968 0.2511 -0.2511 0.968 -36.0316 -168.2854)">
				<stop  offset="0" style="stop-color:#FFFFFF"/>
				<stop  offset="1" style="stop-color:#FF6700"/>
			</linearGradient>
			<path class="st13" d="M70.9,93.8l0.1,2.7c0.5,0.1,1,0.4,1.1,1.1c0.1,0.4,0.1,0.7,0.2,1.1c0.1,0,0.2,0,0.3,0.1l0.4-5.2
				C72.3,93.6,71.6,93.7,70.9,93.8z"/>
			
				<linearGradient id="SVGID_16_" gradientUnits="userSpaceOnUse" x1="85.2477" y1="281.7374" x2="175.8648" y2="220.5613" gradientTransform="matrix(0.968 0.2511 -0.2511 0.968 -36.0316 -168.2854)">
				<stop  offset="0" style="stop-color:#FFFFFF"/>
				<stop  offset="1" style="stop-color:#FF6700"/>
			</linearGradient>
			<path class="st14" d="M62.6,93.4l-0.5,2.4c0.4,0.1,0.8,0.5,0.9,0.9c0,0,0.1,0,0.1,0c0.1-0.4,0.4-0.7,0.7-0.9l0.4-1.1
				C63.3,94.7,62.7,94.1,62.6,93.4z"/>
			
				<linearGradient id="SVGID_17_" gradientUnits="userSpaceOnUse" x1="86.4799" y1="283.5626" x2="177.097" y2="222.3865" gradientTransform="matrix(0.968 0.2511 -0.2511 0.968 -36.0316 -168.2854)">
				<stop  offset="0" style="stop-color:#FFFFFF"/>
				<stop  offset="1" style="stop-color:#FF6700"/>
			</linearGradient>
			<path class="st15" d="M66.7,94.4l-0.2,2.5c0.5-0.2,1.2-0.2,1.6,0.2l0.6-3C68.1,94.2,67.4,94.3,66.7,94.4z"/>
			
				<linearGradient id="SVGID_18_" gradientUnits="userSpaceOnUse" x1="88.2067" y1="286.1204" x2="178.8238" y2="224.9443" gradientTransform="matrix(0.968 0.2511 -0.2511 0.968 -36.0316 -168.2854)">
				<stop  offset="0" style="stop-color:#FFFFFF"/>
				<stop  offset="1" style="stop-color:#FF6700"/>
			</linearGradient>
			<path class="st16" d="M75.7,98.2c0.5-0.1,1.2,0,1.5,0.5L77,93c-0.7,0.1-1.4,0.2-2.1,0.3L75.7,98.2z"/>
			
				<linearGradient id="SVGID_19_" gradientUnits="userSpaceOnUse" x1="89.4405" y1="287.9479" x2="180.0575" y2="226.7718" gradientTransform="matrix(0.968 0.2511 -0.2511 0.968 -36.0316 -168.2854)">
				<stop  offset="0" style="stop-color:#FFFFFF"/>
				<stop  offset="1" style="stop-color:#FF6700"/>
			</linearGradient>
			<path class="st17" d="M79.5,94.5l0.6,1.9c0.6,0,1.3,0.3,1.4,1.1c0.1,0.4,0.1,0.9,0.2,1.3c0.1,0,0.1,0,0.2,0c0-0.1,0-0.3,0.1-0.4
				c0-0.2,0-0.3,0-0.5l-0.6-3.3c-0.4,0.1-0.7,0.1-1.1,0.1C80,94.8,79.7,94.7,79.5,94.5z"/>
			
				<linearGradient id="SVGID_20_" gradientUnits="userSpaceOnUse" x1="86.1136" y1="283.0201" x2="176.7307" y2="221.844" gradientTransform="matrix(0.968 0.2511 -0.2511 0.968 -36.0316 -168.2854)">
				<stop  offset="0" style="stop-color:#FFFFFF"/>
				<stop  offset="1" style="stop-color:#FF6700"/>
			</linearGradient>
			<path class="st18" d="M89.2,87l0.5,0.7c0,0,0,0,0.1,0c0.6-0.3,1.3-0.7,1.9-1l-0.4-0.6c-0.6,0.2-1.2,0.5-1.8,0.8
				C89.4,86.9,89.3,87,89.2,87z"/>
			
				<linearGradient id="SVGID_21_" gradientUnits="userSpaceOnUse" x1="85.9492" y1="282.7764" x2="176.5662" y2="221.6003" gradientTransform="matrix(0.968 0.2511 -0.2511 0.968 -36.0316 -168.2854)">
				<stop  offset="0" style="stop-color:#FFFFFF"/>
				<stop  offset="1" style="stop-color:#FF6700"/>
			</linearGradient>
			<path class="st19" d="M117.1,76.6l1.9,0.5l-1.8-0.7C117.2,76.5,117.2,76.5,117.1,76.6z"/>
			
				<linearGradient id="SVGID_22_" gradientUnits="userSpaceOnUse" x1="71.9216" y1="269.6705" x2="161.2238" y2="209.3821" gradientTransform="matrix(0.9549 0.234 -0.238 0.954 -30.0956 -154.9707)">
				<stop  offset="0" style="stop-color:#FFFFFF"/>
				<stop  offset="1" style="stop-color:#FF6700"/>
			</linearGradient>
			<path class="st20" d="M105.2,70.7l1.2,0.3c-0.1-0.2-0.1-0.5-0.1-0.7C105.9,70.4,105.5,70.5,105.2,70.7z"/>
			
				<linearGradient id="SVGID_23_" gradientUnits="userSpaceOnUse" x1="99.4209" y1="300.7548" x2="188.7231" y2="240.4663" gradientTransform="matrix(0.9437 0.2755 -0.2795 0.9427 -34.2498 -183.8599)">
				<stop  offset="0" style="stop-color:#FFFFFF"/>
				<stop  offset="1" style="stop-color:#FF6700"/>
			</linearGradient>
			<path class="st21" d="M70.4,93.9l0.7,5.1c0.3,0.1,0.6,0.2,0.8,0.2l-0.1-5.5C71.4,93.8,70.9,93.8,70.4,93.9z"/>
			
				<linearGradient id="SVGID_24_" gradientUnits="userSpaceOnUse" x1="98.3134" y1="299.1143" x2="187.6157" y2="238.8259" gradientTransform="matrix(0.9437 0.2755 -0.2795 0.9427 -34.2498 -183.8599)">
				<stop  offset="0" style="stop-color:#FFFFFF"/>
				<stop  offset="1" style="stop-color:#FF6700"/>
			</linearGradient>
			<path class="st22" d="M65.9,94.5l0,2.2c0.3,0.1,0.6,0.4,0.7,0.8c0.1,0,0.2,0,0.4,0l0.4-3.2C66.8,94.4,66.4,94.5,65.9,94.5z"/>
			
				<linearGradient id="SVGID_25_" gradientUnits="userSpaceOnUse" x1="97.3593" y1="297.7011" x2="186.6616" y2="237.4126" gradientTransform="matrix(0.9437 0.2755 -0.2795 0.9427 -34.2498 -183.8599)">
				<stop  offset="0" style="stop-color:#FFFFFF"/>
				<stop  offset="1" style="stop-color:#FF6700"/>
			</linearGradient>
			<path class="st23" d="M91.8,86.6c0.1-0.1,0.2-0.1,0.3-0.2c0.3-0.2,0.6-0.3,0.9-0.5l-0.3-0.4c-0.5,0.2-0.9,0.4-1.4,0.6L91.8,86.6z
				"/>
			
				<linearGradient id="SVGID_26_" gradientUnits="userSpaceOnUse" x1="99.9476" y1="301.535" x2="189.2499" y2="241.2466" gradientTransform="matrix(0.9437 0.2755 -0.2795 0.9427 -34.2498 -183.8599)">
				<stop  offset="0" style="stop-color:#FFFFFF"/>
				<stop  offset="1" style="stop-color:#FF6700"/>
			</linearGradient>
			<path class="st24" d="M76.4,98.9c0.1-0.3,0.2-0.7,0.3-1c0.1-0.2,0.2-0.4,0.3-0.5l-0.6-4.4c-0.5,0.1-1,0.1-1.5,0.2L76.4,98.9z"/>
			
				<linearGradient id="SVGID_27_" gradientUnits="userSpaceOnUse" x1="97.6197" y1="298.0868" x2="186.922" y2="237.7984" gradientTransform="matrix(0.9437 0.2755 -0.2795 0.9427 -34.2498 -183.8599)">
				<stop  offset="0" style="stop-color:#FFFFFF"/>
				<stop  offset="1" style="stop-color:#FF6700"/>
			</linearGradient>
			<path class="st25" d="M87.3,88.3c0.5-0.1,1-0.2,1.6-0.3c0,0,0,0,0,0l-0.4-0.7c-0.5,0.2-0.9,0.5-1.4,0.7L87.3,88.3z"/>
			
				<linearGradient id="SVGID_28_" gradientUnits="userSpaceOnUse" x1="59.9467" y1="251.9327" x2="149.2489" y2="191.6443" gradientTransform="matrix(0.9549 0.234 -0.238 0.954 -30.0956 -154.9707)">
				<stop  offset="0" style="stop-color:#FFFFFF"/>
				<stop  offset="1" style="stop-color:#FF6700"/>
			</linearGradient>
			<path class="st26" d="M25.2,78.3l1.3-0.5c0.2-0.2,0.5-0.4,0.7-0.6L25.2,78.3z"/>
			
				<linearGradient id="SVGID_29_" gradientUnits="userSpaceOnUse" x1="84.6336" y1="286.9882" x2="175.2507" y2="225.8121" gradientTransform="matrix(0.968 0.2511 -0.2511 0.968 -36.0316 -168.2854)">
				<stop  offset="0" style="stop-color:#FFFFFF"/>
				<stop  offset="1" style="stop-color:#FF6700"/>
			</linearGradient>
			<path class="st27" d="M71.2,93.8l0.7,3.8c0.5-0.1,1.2,0,1.5,0.5l-0.2-4.5C72.5,93.6,71.9,93.7,71.2,93.8z"/>
			
				<linearGradient id="SVGID_30_" gradientUnits="userSpaceOnUse" x1="83.9904" y1="286.0354" x2="174.6074" y2="224.8593" gradientTransform="matrix(0.968 0.2511 -0.2511 0.968 -36.0316 -168.2854)">
				<stop  offset="0" style="stop-color:#FFFFFF"/>
				<stop  offset="1" style="stop-color:#FF6700"/>
			</linearGradient>
			<path class="st28" d="M67.1,94.4l0.1,1.6c0.5,0.1,1,0.4,1.1,1.1c0.1,0.4,0.1,0.7,0.2,1.1c0.1,0,0.2,0,0.3,0.1l0.3-4.1
				C68.4,94.2,67.7,94.3,67.1,94.4z"/>
			
				<linearGradient id="SVGID_31_" gradientUnits="userSpaceOnUse" x1="82.6455" y1="284.0432" x2="173.2625" y2="222.8672" gradientTransform="matrix(0.968 0.2511 -0.2511 0.968 -36.0316 -168.2854)">
				<stop  offset="0" style="stop-color:#FFFFFF"/>
				<stop  offset="1" style="stop-color:#FF6700"/>
			</linearGradient>
			<path class="st29" d="M64.5,94.7c-0.7,0.1-1.3-0.3-1.6-0.8l-0.2,2.3c0.5-0.2,1.2-0.2,1.6,0.2l0.4-1.8
				C64.6,94.7,64.5,94.7,64.5,94.7z"/>
			
				<linearGradient id="SVGID_32_" gradientUnits="userSpaceOnUse" x1="85.347" y1="288.0449" x2="175.964" y2="226.8688" gradientTransform="matrix(0.968 0.2511 -0.2511 0.968 -36.0316 -168.2854)">
				<stop  offset="0" style="stop-color:#FFFFFF"/>
				<stop  offset="1" style="stop-color:#FF6700"/>
			</linearGradient>
			<path class="st30" d="M76.2,95.9c0.6,0,1.3,0.3,1.4,1.1c0.1,0.4,0.1,0.9,0.2,1.3c0.1,0,0.1,0,0.2,0c0-0.1,0-0.3,0.1-0.4
				c0-0.2,0-0.3,0-0.5l-0.8-4.4c-0.7,0.1-1.3,0.2-2,0.3L76.2,95.9z"/>
			<linearGradient id="SVGID_33_" gradientUnits="userSpaceOnUse" x1="-1.5386" y1="142.8502" x2="87.5682" y2="82.6937">
				<stop  offset="0" style="stop-color:#FFFFFF"/>
				<stop  offset="1" style="stop-color:#FF6700"/>
			</linearGradient>
			<path class="st31" d="M84.1,87.5l-1.2-3.4c-0.9,0.1-1.8,0.3-2.7,0.4l2.2,4.4c0.3-0.1,0.6-0.3,0.9-0.4
				C83.6,88.3,83.8,87.9,84.1,87.5z"/>
			<linearGradient id="SVGID_34_" gradientUnits="userSpaceOnUse" x1="0.8237" y1="146.3494" x2="89.9305" y2="86.193">
				<stop  offset="0" style="stop-color:#FFFFFF"/>
				<stop  offset="1" style="stop-color:#FF6700"/>
			</linearGradient>
			<path class="st32" d="M93.4,85.8l-1.5-2.3c-0.3,0-0.6,0-0.9,0c-0.3,0.4-0.5,0.7-0.8,1.1l1.6,1.8C92.1,85.9,92.8,85.6,93.4,85.8z"
				/>
			<linearGradient id="SVGID_35_" gradientUnits="userSpaceOnUse" x1="-3.0431" y1="140.6217" x2="86.0637" y2="80.4652">
				<stop  offset="0" style="stop-color:#FFFFFF"/>
				<stop  offset="1" style="stop-color:#FF6700"/>
			</linearGradient>
			<path class="st33" d="M75.4,85.5c-0.9,0.2-1.7,0.4-2.6,0.6l1,4.8c0.7-0.1,1.4-0.1,2-0.2L75.4,85.5z"/>
			<linearGradient id="SVGID_36_" gradientUnits="userSpaceOnUse" x1="-2.8306" y1="140.9364" x2="86.2761" y2="80.7799">
				<stop  offset="0" style="stop-color:#FFFFFF"/>
				<stop  offset="1" style="stop-color:#FF6700"/>
			</linearGradient>
			<path class="st34" d="M79.1,87c0.2,0.1,0.4,0.2,0.5,0.4l-0.6-2.6c-0.9,0.2-1.8,0.3-2.6,0.5l0.7,2.1C77.6,86.8,78.4,86.5,79.1,87z
				"/>
			<linearGradient id="SVGID_37_" gradientUnits="userSpaceOnUse" x1="-1.3594" y1="143.1156" x2="87.7473" y2="82.9592">
				<stop  offset="0" style="stop-color:#FFFFFF"/>
				<stop  offset="1" style="stop-color:#FF6700"/>
			</linearGradient>
			<path class="st35" d="M85.5,85.7c0.5-0.6,1-1.3,1.5-1.9c-0.9,0.1-1.8,0.2-2.6,0.3L85.5,85.7z"/>
			<linearGradient id="SVGID_38_" gradientUnits="userSpaceOnUse" x1="2.0437" y1="148.1566" x2="91.1505" y2="88.0001">
				<stop  offset="0" style="stop-color:#FFFFFF"/>
				<stop  offset="1" style="stop-color:#FF6700"/>
			</linearGradient>
			<path class="st36" d="M89,89.8c0,0.1,0,0.1,0,0.2c0.2-0.1,0.4-0.1,0.6-0.2c0.1-0.2,0.1-0.5,0.2-0.7l-0.3-0.6
				c0,0.4-0.1,0.8-0.4,1.2C89,89.7,89,89.7,89,89.8z"/>
			<linearGradient id="SVGID_39_" gradientUnits="userSpaceOnUse" x1="-5.2343" y1="137.3759" x2="83.8725" y2="77.2195">
				<stop  offset="0" style="stop-color:#FFFFFF"/>
				<stop  offset="1" style="stop-color:#FF6700"/>
			</linearGradient>
			<path class="st37" d="M67.1,90.1l0.4-2.6c-0.8,0.3-1.7,0.5-2.5,0.8l0,1C65.7,89.6,66.4,89.9,67.1,90.1z"/>
			<linearGradient id="SVGID_40_" gradientUnits="userSpaceOnUse" x1="1.7544" y1="147.7281" x2="90.8612" y2="87.5716">
				<stop  offset="0" style="stop-color:#FFFFFF"/>
				<stop  offset="1" style="stop-color:#FF6700"/>
			</linearGradient>
			<path class="st38" d="M97.2,83.7c-0.5,0-1-0.1-1.6-0.1l1,0.9C96.8,84.2,97,83.9,97.2,83.7z"/>
			<linearGradient id="SVGID_41_" gradientUnits="userSpaceOnUse" x1="-17.1616" y1="119.7086" x2="71.9452" y2="59.5522">
				<stop  offset="0" style="stop-color:#FFFFFF"/>
				<stop  offset="1" style="stop-color:#FF6700"/>
			</linearGradient>
			<path class="st39" d="M41.7,78.9c0.5,0.4,1.1,0.7,1.7,1l1.3-1C43.7,79.1,42.7,79,41.7,78.9z"/>
			<linearGradient id="SVGID_42_" gradientUnits="userSpaceOnUse" x1="-3.9847" y1="139.2269" x2="85.122" y2="79.0704">
				<stop  offset="0" style="stop-color:#FFFFFF"/>
				<stop  offset="1" style="stop-color:#FF6700"/>
			</linearGradient>
			<path class="st40" d="M70.1,91.3c0.3,0,0.7-0.1,1-0.1c0.1,0,0.2,0,0.2,0l0.2-4.7c-0.9,0.2-1.7,0.5-2.6,0.7l0.3,3.9
				C69.6,91.1,69.9,91.2,70.1,91.3z"/>
			<linearGradient id="SVGID_43_" gradientUnits="userSpaceOnUse" x1="-11.75" y1="127.7247" x2="77.3568" y2="67.5682">
				<stop  offset="0" style="stop-color:#FFFFFF"/>
				<stop  offset="1" style="stop-color:#FF6700"/>
			</linearGradient>
			<path class="st41" d="M54.6,81.7l-0.8,1.9c0.4,0,0.8,0,1.2,0c0.8-0.5,1.6-0.9,2.5-1.4l1.3-2.1C57.3,80.6,55.9,81.2,54.6,81.7z"/>
			<linearGradient id="SVGID_44_" gradientUnits="userSpaceOnUse" x1="-12.5608" y1="126.5236" x2="76.546" y2="66.3672">
				<stop  offset="0" style="stop-color:#FFFFFF"/>
				<stop  offset="1" style="stop-color:#FF6700"/>
			</linearGradient>
			<path class="st42" d="M51.4,83.6c0.1,0,0.3,0,0.4,0l0.9-1.1c-0.7,0.3-1.4,0.6-2,0.8C50.9,83.4,51.1,83.5,51.4,83.6z"/>
			
				<linearGradient id="SVGID_45_" gradientUnits="userSpaceOnUse" x1="-35.0073" y1="134.7377" x2="67.8051" y2="65.3285" gradientTransform="matrix(0.9998 1.866536e-02 -1.866536e-02 0.9998 -5.2549 -11.5531)">
				<stop  offset="0" style="stop-color:#FFFFFF"/>
				<stop  offset="1" style="stop-color:#FF6700"/>
			</linearGradient>
			<path class="st43" d="M125.7,60.3l-28.2-2.7l26.8-9l-28.1,3.3l24.4-14.4l-26.8,9l20.9-19.1L90.3,41.9l16.4-23L85.9,38l11.3-26
				L80.8,35.1l5.7-27.7l-11.2,26L75,5.1l-5.6,27.7L63.3,5.2l0.3,28.3L51.9,7.7L58,35.3L41.2,12.6L53,38.3L31.8,19.5l16.9,22.7
				l-24.6-14L45.3,47l-27-8.5L43,52.4l-28.2-2.7l27,8.5l-28.1,3.2L41.8,64l-9.5,3.2c0.3,0.3,0.4,0.7,0.5,1.1c0,0.8-0.7,1.5-1.5,1.5
				h-0.4c0,0.6-0.3,1.2-0.8,1.5l13-1.5l-8.6,5c0.7,0.1,1.2,0.6,1.2,1.4c0.7-0.3,1.6,0,1.9,1c0,0.1,0,0.1,0,0.2
				c0.7-0.1,1.5-0.3,2.2-0.4c0,0,0.1,0,0.1,0l5.6-1.9l-3.9,3.6c0,0.2-0.1,0.5-0.2,0.7c0,0,0,0,0,0c0,0.5,0,1,0,1.5
				c1.6,0.1,3.3,0.3,4.9,0.5l2.7-1.6l-1.3,1.8c0.6,0.1,1.1,0.2,1.7,0.2c1.9,0.3,1.9,2.8-0.1,3c-1.2,0.1-2.3,0.2-3.5,0.2
				c0.5,0.4,0.7,1.1,0.5,1.6c-0.2,0.6-0.5,1.1-0.8,1.5c0.2,0.7,0.3,1.5,0.5,2.2l0.6-0.5c0.4-0.7,0.8-1.4,1.2-2.1
				c0.4-0.7,1.1-0.8,1.8-0.6l3.8-3.5l-1.8,4.2c0.5,0.2,1,0.6,1.1,1.1c0.3,1,0.4,2.1,0.4,3.1c0.3,0.1,0.6,0.3,0.7,0.7
				c0,0.1,0,0.1,0.1,0.2l4.6-6.4l-1.8,8.8c0.9,0.2,1.9,0.4,2.8,0.7c0.1,0,0.1,0,0.2-0.1c0.3-0.3,0.8-0.4,1.2-0.3l3.1-7.3l0.1,7.4
				c0.5,0.1,0.9,0.5,1.1,1c0,0,0,0,0,0c0.2,0,0.4,0,0.5,0.1c0.7-0.2,1.6,0,1.8,0.8c0.2,0,0.3,0,0.5,0l1.8-8.7l2.2,10.1
				c0.3,0.1,0.6,0.1,0.9,0.2c0.3,0,0.6,0.1,0.9,0.1c0.2-0.9,1.2-1.1,1.9-0.8l-0.1-10.2l3.9,8.5c0.3,0.1,0.6,0.2,0.8,0.5
				c0.2,0,0.4,0,0.6,0.1c-1.3-2.4-2.6-4.8-3.9-7.2c-0.7-1.3,0.8-3,2.1-2c1,0.7,1.9,1.4,2.9,2.1l-0.9-3.9l4,5.4c0-0.7,0-1.5,0-2.2
				c0-2,3.1-1.9,3,0.1c0,1.2,0,2.4,0,3.6c0.2-1.2,0.5-2.4,0.8-3.6l-2.8-6.1l5.3,4.7c0.3-0.8,1.3-1.3,2.1-0.9c0.1-0.3,0.1-0.7,0.2-1
				c0.1-0.6,0.5-0.9,1-1l-4.3-5.7l7.3,4.1c0.3-0.5,1-0.9,1.7-0.7c0.1,0,0.3,0.1,0.4,0.1c0.1,0,0.2-0.1,0.3-0.1
				c-0.2-0.7,0.2-1.5,0.9-1.8L94,74.6l7.3,2.3c-1.2-1.8-1.8-3.8-1.1-5.5l-3.9-2.2l5.1,0.5c0.2-0.2,0.5-0.4,0.8-0.5
				c2.2-1.3,4.7-1.7,7.2-2l-11.9-3.7L125.7,60.3z"/>
			
				<linearGradient id="SVGID_46_" gradientUnits="userSpaceOnUse" x1="-18.8873" y1="157.4705" x2="83.9251" y2="88.0613" gradientTransform="matrix(1 1.706045e-03 -1.706045e-03 1 -0.7137 -0.7842)">
				<stop  offset="0" style="stop-color:#FFFFFF"/>
				<stop  offset="1" style="stop-color:#FF6700"/>
			</linearGradient>
			<path class="st44" d="M104.6,73.4c0.3,0.1,0.7,0.2,1,0.4c0-0.1,0.1-0.1,0.2-0.2l-2.5-1.3c0,0.4,0.1,0.8,0.3,1.1
				C103.8,73.3,104.2,73.3,104.6,73.4z"/>
			<path class="st47" d="M20.2,105.1c0,0,14.3-21.6,45.2-11.8s48.9-15.8,48.9-15.8s-13.1,29.9-52.2,25.8
				C62,103.3,38.1,95,20.2,105.1z"/>
			<g id="XMLID_1_">
				<g>
					<linearGradient id="SVGID_47_" gradientUnits="userSpaceOnUse" x1="0.2309" y1="106.782" x2="69.5425" y2="59.9893">
						<stop  offset="0" style="stop-color:#FFFFFF"/>
						<stop  offset="1" style="stop-color:#FF6700"/>
					</linearGradient>
					<path style="fill:url(#SVGID_47_);" d="M109.8,60c0,22.2-18,40.2-40.2,40.2S29.4,82.2,29.4,60s18-40.2,40.2-40.2
						S109.8,37.7,109.8,60z"/>
				</g>
				<g>
					<path class="st49" d="M109.8,60c0,22.2-18,40.2-40.2,40.2S29.4,82.2,29.4,60s18-40.2,40.2-40.2S109.8,37.7,109.8,60z"/>
				</g>
			</g>
			<path class="st50" d="M5,97.1c0,0,15.6-44.6,56.1-23.9s60.5-19.8,60.5-19.8S93.4,117,62.4,88S5,97.1,5,97.1z"/>
			<path class="st51" d="M90,82.1c-0.6-0.2-1.1-0.5-1.4-0.6C85.1,79.8,70,72.4,54,68.2c-5.1-1.4-14.8-3.1-21.4-3.8
				c-3.6-0.4-6.7-0.1-6.8-0.1c-1.2,0-4,0.3-6.5,1.3c-3.6,1.5-6.8,3.7-6.8,3.6c0.6-1.7,13.8-15.9,22.4-13.4c-5.3,3.1-5.7,5.8-2.7,6.2
				c0.1,0,3.3,1.4,6.4,1.8c3.3,0.4,6.5-0.1,6.5-0.1c0.7-0.3,1.3-0.3,2.9-1.6c2.9-2.4,5.5-3,10.3-3c0,0-3.9,2.4-4.9,4.3
				c-0.8,1.7,1.3,2.9,1.7,3.1c1.6,0.9,4.7,1.3,6.1,1.5c2.9,0.4,5.6-1.6,5.7-1.9c2.7,2.8,8.1,7.7,16.8,11c4.7,1.8,13,4.6,18.9,4.6
				c1.9,0,6.5-1.1,8.7-3.3c2.2-2.2,2.1-5.4,2.1-5.7c0.3,0.2,3.1,4,6.1,4.7c3,0.8,6.2-1.4,7.8-2.4c0,0-4.5,6.5-9.9,9.3
				c-5.2,2.8-11.3,2-11.9,2C98.8,86.3,91.6,82.8,90,82.1z"/>
		</g>
	</g>
</g>
<g id="圖層_2">
</g>
<g id="圖層_3">
</g>
</svg>
