<?xml version="1.0" ?><svg viewBox="0 0 64 64" xmlns="http://www.w3.org/2000/svg"><title/><g data-name="02. Hook" id="_02._Hook"><polygon fill="#fbae04" points="27 8 37 8 36 14 28 14 27 8"/><path d="M20,40a6,6,0,1,0,6,6A6,6,0,0,0,20,40Zm0,9a3,3,0,1,1,3-3A3,3,0,0,1,20,49Z" fill="#b1b9c1"/><path d="M32,40a6,6,0,1,0,6,6A6,6,0,0,0,32,40Zm0,9a3,3,0,1,1,3-3A3,3,0,0,1,32,49Z" fill="#b1b9c1"/><path d="M26,29a6,6,0,1,0,6,6A6,6,0,0,0,26,29Zm0,9a3,3,0,1,1,3-3A3,3,0,0,1,26,38Z" fill="#b1b9c1"/><path d="M38,29a6,6,0,1,0,6,6A6,6,0,0,0,38,29Zm0,9a3,3,0,1,1,3-3A3,3,0,0,1,38,38Z" fill="#b1b9c1"/><path d="M44,40a6,6,0,1,0,6,6A6,6,0,0,0,44,40Zm0,9a3,3,0,1,1,3-3A3,3,0,0,1,44,49Z" fill="#b1b9c1"/><rect fill="#f04a1c" height="20" width="4" x="10" y="36"/><rect fill="#f04a1c" height="20" width="4" x="50" y="36"/><rect fill="#f04a1c" height="36" transform="translate(-22 86) rotate(-90)" width="4" x="30" y="36"/><path d="M20,42a4,4,0,1,0,4,4A4.00458,4.00458,0,0,0,20,42Zm0,6a2,2,0,1,1,2-2A2.002,2.002,0,0,1,20,48Z" fill="#0b1a22"/><path d="M32,42a4,4,0,1,0,4,4A4.00458,4.00458,0,0,0,32,42Zm0,6a2,2,0,1,1,2-2A2.002,2.002,0,0,1,32,48Z" fill="#0b1a22"/><path d="M26,31a4,4,0,1,0,4,4A4.00458,4.00458,0,0,0,26,31Zm0,6a2,2,0,1,1,2-2A2.002,2.002,0,0,1,26,37Z" fill="#0b1a22"/><path d="M38,31a4,4,0,1,0,4,4A4.00458,4.00458,0,0,0,38,31Zm0,6a2,2,0,1,1,2-2A2.002,2.002,0,0,1,38,37Z" fill="#0b1a22"/><path d="M44,42a4,4,0,1,0,4,4A4.00458,4.00458,0,0,0,44,42Zm0,6a2,2,0,1,1,2-2A2.002,2.002,0,0,1,44,48Z" fill="#0b1a22"/><path d="M54,35H50.36182L35.9693,23.00623A4.95129,4.95129,0,0,0,37,20a5.00837,5.00837,0,0,0-4-4.89893V15h3a.99987.99987,0,0,0,.98633-.83545l1-6A.99959.99959,0,0,0,37,7H27a.99959.99959,0,0,0-.98633,1.16455l1,6A1.032,1.032,0,0,0,28,15h3v1a1,1,0,0,0,1,1,2.99084,2.99084,0,0,1,2.44067,4.73236l-1.80053-1.50043a.99856.99856,0,0,0-1.28028,0l-1.80053,1.50043A2.97541,2.97541,0,0,1,29,20a1,1,0,0,0-2,0,4.95129,4.95129,0,0,0,1.0307,3.00623L13.63818,35H10a1,1,0,0,0-1,1V56a1,1,0,0,0,1,1H54a1,1,0,0,0,1-1V36A1,1,0,0,0,54,35ZM34.13153,9l-2.66669,4H29.86847l2.66669-4Zm-.26306,4,1.71234-2.56848L35.15283,13ZM30.13153,9l-1.56079,2.34113L28.18066,9ZM53,39V51H51V37h2ZM15,50.88965c.03644.03729.07306.07391.11035.11035H15ZM15,46a5,5,0,1,1,5,5A5.00588,5.00588,0,0,1,15,46Zm11-6a5,5,0,1,1,5-5A5.00588,5.00588,0,0,1,26,40Zm0,2c.09247,0,.18237-.01025.274-.01385-.09717.13824-.18677.28155-.274.42681-.08722-.14526-.17682-.28857-.274-.42681C25.81763,41.98975,25.90753,42,26,42Zm6-3.413c.08722.14526.17682.28857.274.42681C32.18237,39.01025,32.09247,39,32,39s-.18237.01025-.274.01385C31.82318,38.87561,31.91278,38.7323,32,38.587ZM38,40a5,5,0,1,1,5-5A5.00588,5.00588,0,0,1,38,40Zm.274,1.98615c-.09717.13824-.18677.28155-.274.42681-.08722-.14526-.17682-.28857-.274-.42681.09162.0036.18152.01385.274.01385S38.18237,41.98975,38.274,41.98615ZM38,28a6.99609,6.99609,0,0,0-6,3.413,6.90215,6.90215,0,0,0-6.91888-3.34552l4.47747-3.7312a4.82182,4.82182,0,0,0,4.88282,0l4.47747,3.7312A7.00009,7.00009,0,0,0,38,28ZM20.274,39.01385C20.18237,39.01025,20.09247,39,20,39a6.97593,6.97593,0,0,0-5,2.11035V36.46826L19.34082,32.851a6.95531,6.95531,0,0,0,.93317,6.1629ZM26,49.587A7.04076,7.04076,0,0,0,27.11035,51h-2.2207A7.04076,7.04076,0,0,0,26,49.587ZM27,46a5,5,0,1,1,5,5A5.00588,5.00588,0,0,1,27,46Zm11,3.587A7.04076,7.04076,0,0,0,39.11035,51h-2.2207A7.04076,7.04076,0,0,0,38,49.587ZM39,46a5,5,0,1,1,5,5A5.00588,5.00588,0,0,1,39,46Zm10,4.88965V51h-.11035C48.92694,50.96356,48.96356,50.92694,49,50.88965Zm0-9.7793A6.97593,6.97593,0,0,0,44,39c-.09247,0-.18237.01025-.274.01385a6.95531,6.95531,0,0,0,.93317-6.1629L49,36.46826ZM32,22.30176l.721.60077a2.715,2.715,0,0,1-1.4419,0ZM11,37h2V51H11V37Zm0,16h2v2H11Zm4,0H49v2H15Zm36,2V53h2v2Z" fill="#0b1a22"/><circle cx="12" cy="39" fill="#0b1a22" r="1"/><circle cx="52" cy="39" fill="#0b1a22" r="1"/></g></svg>