<?xml version="1.0" ?><svg viewBox="0 0 64 64" xmlns="http://www.w3.org/2000/svg"><title/><g data-name="01. Forklift" id="_01._Forklift"><path d="M41,40v2a2,2,0,0,1-2,2H34a2,2,0,0,1-2-2h0a2,2,0,0,0-2-2H22v9a2,2,0,0,0,2,2H54a2,2,0,0,0,2-2V38H43A2,2,0,0,0,41,40Z" fill="#fbae04"/><circle cx="51" cy="51" fill="#374d5d" r="3"/><circle cx="28" cy="50" fill="#374d5d" r="4"/><rect fill="#b1b9c1" height="4" width="14" x="8" y="44"/><rect fill="#f04a1c" height="10" width="10" x="9" y="34"/><rect fill="#f04a1c" height="10" width="10" x="9" y="24"/><rect fill="#b1b9c1" height="24" width="4" x="22" y="16"/><rect fill="#b1b9c1" height="3" width="18" x="33" y="10"/><path d="M42,48,53,38H43a2,2,0,0,0-2,2v2a2,2,0,0,1-2,2H34a2,2,0,0,1-2-2,2,2,0,0,0-2-2H26l6,8Z" fill="#b1b9c1"/><path d="M44,32h5a0,0,0,0,1,0,0v3a0,0,0,0,1,0,0H41a0,0,0,0,1,0,0v0A3,3,0,0,1,44,32Z" fill="#374d5d"/><path d="M49,26h0a0,0,0,0,1,0,0v6a0,0,0,0,1,0,0H46a0,0,0,0,1,0,0V29A3,3,0,0,1,49,26Z" fill="#374d5d"/><rect fill="#4f8aca" height="3" width="4" x="52" y="42"/><path d="M56,37H53.923L52,12.96313V10a1,1,0,0,0-1-1H33a1,1,0,0,0-1,1v3a.99063.99063,0,0,0,.67969.9353L27,33.10425V16a1,1,0,0,0-1-1H22a1,1,0,0,0-1,1V43H20V24a1,1,0,0,0-1-1H9a1,1,0,0,0-1,1V43a1,1,0,0,0-1,1v4a1,1,0,0,0,1,1H21a3.00471,3.00471,0,0,0,2.39148,2.93751A4.99452,4.99452,0,0,0,32.57617,52H47.142a3.98827,3.98827,0,0,0,7.76416-.15509A2.99375,2.99375,0,0,0,57,49V38A1,1,0,0,0,56,37ZM23.06744,49.333A.9812.9812,0,0,1,23,49V41h2.50012l3.041,4.05469A4.89958,4.89958,0,0,0,28,45,4.99135,4.99135,0,0,0,23.06744,49.333ZM27.99988,41H30a1.0013,1.0013,0,0,1,1,1,3.00328,3.00328,0,0,0,3,3h5a3.00328,3.00328,0,0,0,3-3V40a1.0013,1.0013,0,0,1,1-1h7.41327l-8.8,8H32.5ZM46,37V36h3a1,1,0,0,0,1-1V26a1,1,0,0,0-1-1,4.00458,4.00458,0,0,0-4,4v2H44a4.00458,4.00458,0,0,0-4,4,1,1,0,0,0,1,1h3v1H43a3.00328,3.00328,0,0,0-3,3v2a1.0013,1.0013,0,0,1-1,1H34a1.0013,1.0013,0,0,1-1-1,3.00056,3.00056,0,0,0-2.32452-2.91669l2.9068-5.087.71069.71069A.99989.99989,0,0,0,35.707,33.293l-3-3A.99989.99989,0,1,0,31.293,31.707l.82361.82361L28.4198,39H27.33923l7.40735-25H50.07666l1.84,23Zm2-6H47V29a2.00125,2.00125,0,0,1,1-1.73145Zm0,2v1H42.26855A2.00125,2.00125,0,0,1,44,33ZM34,11H50v1H34ZM23,36V17h2V39H23ZM10,25h3v2a1,1,0,0,0,2,0V25h3v8H10Zm0,10h3v2a1,1,0,0,0,2,0V35h3v8H10ZM9,47V45H21v2Zm19,6a3,3,0,1,1,3-3A3.00328,3.00328,0,0,1,28,53Zm23,0a2,2,0,1,1,2-2A2.002,2.002,0,0,1,51,53Zm3.7478-3.35413A3.979,3.979,0,0,0,47.142,50H33a5.00068,5.00068,0,0,0-.10107-1H42a1.00038,1.00038,0,0,0,.67285-.26025L53.3866,39H55v2H52a1,1,0,0,0-1,1v3a1,1,0,0,0,1,1h3v3A.98505.98505,0,0,1,54.7478,49.64587ZM55,44H53V43h2Z" fill="#0b1a22"/><circle cx="24" cy="19" fill="#0b1a22" r="1"/><circle cx="24" cy="36" fill="#0b1a22" r="1"/></g></svg>